%TF.GenerationSoftware,KiCad,Pcbnew,8.0.4*%
%TF.CreationDate,2024-10-15T16:21:06+03:00*%
%TF.ProjectId,projecsts,70726f6a-6563-4737-9473-2e6b69636164,rev?*%
%TF.SameCoordinates,Original*%
%TF.FileFunction,Plated,1,2,PTH,Mixed*%
%TF.FilePolarity,Positive*%
%FSLAX46Y46*%
G04 Gerber Fmt 4.6, Leading zero omitted, Abs format (unit mm)*
G04 Created by KiCad (PCBNEW 8.0.4) date 2024-10-15 16:21:06*
%MOMM*%
%LPD*%
G01*
G04 APERTURE LIST*
%TA.AperFunction,ViaDrill*%
%ADD10C,0.500000*%
%TD*%
%TA.AperFunction,ComponentDrill*%
%ADD11C,0.700000*%
%TD*%
%TA.AperFunction,ComponentDrill*%
%ADD12C,0.800000*%
%TD*%
%TA.AperFunction,ComponentDrill*%
%ADD13C,0.900000*%
%TD*%
%TA.AperFunction,ComponentDrill*%
%ADD14C,1.000000*%
%TD*%
G04 aperture for slot hole*
%TA.AperFunction,ComponentDrill*%
%ADD15C,1.000000*%
%TD*%
%TA.AperFunction,ComponentDrill*%
%ADD16C,1.100000*%
%TD*%
%TA.AperFunction,ComponentDrill*%
%ADD17C,1.520000*%
%TD*%
G04 APERTURE END LIST*
D10*
X125272800Y-79451200D03*
D11*
%TO.C,R1*%
X137795000Y-66675000D03*
%TO.C,R3*%
X138430000Y-81280000D03*
%TO.C,R2*%
X138430000Y-85090000D03*
%TO.C,R1*%
X145415000Y-66675000D03*
%TO.C,R3*%
X146050000Y-81280000D03*
%TO.C,R2*%
X146050000Y-85090000D03*
D12*
%TO.C,C2*%
X126385000Y-58420000D03*
%TO.C,C3*%
X126385000Y-89535000D03*
%TO.C,C2*%
X128885000Y-58420000D03*
%TO.C,C3*%
X128885000Y-89535000D03*
%TO.C,C1*%
X131465000Y-58420000D03*
X133965000Y-58420000D03*
D13*
%TO.C,S2*%
X139225000Y-62230000D03*
X141725000Y-62230000D03*
%TO.C,D1*%
X142875000Y-73025000D03*
%TO.C,S2*%
X144225000Y-62230000D03*
%TO.C,D1*%
X145415000Y-73025000D03*
D14*
%TO.C,J4*%
X130175000Y-52705000D03*
%TO.C,J2*%
X130175000Y-94615000D03*
D15*
%TO.C,J6*%
X131445000Y-74025000D02*
X131445000Y-72025000D01*
D14*
%TO.C,J4*%
X132715000Y-52705000D03*
%TO.C,J2*%
X132715000Y-94615000D03*
D15*
%TO.C,J6*%
X135445000Y-77725000D02*
X133445000Y-77725000D01*
D14*
%TO.C,J4*%
X135255000Y-52705000D03*
%TO.C,J2*%
X135255000Y-94615000D03*
D15*
%TO.C,J6*%
X137445000Y-74025000D02*
X137445000Y-72025000D01*
D14*
%TO.C,J3*%
X150933752Y-92373739D03*
X150933752Y-94913739D03*
%TO.C,J1*%
X150989841Y-52415247D03*
X150989841Y-54955247D03*
D16*
%TO.C,U1*%
X126365000Y-63190000D03*
%TO.C,U2*%
X126365000Y-83820000D03*
%TO.C,U1*%
X128905000Y-63190000D03*
%TO.C,U2*%
X128905000Y-83820000D03*
%TO.C,U1*%
X131445000Y-63190000D03*
%TO.C,U2*%
X131445000Y-83820000D03*
D17*
%TO.C,J7*%
X140229346Y-92620007D03*
%TO.C,J5*%
X140335000Y-55245000D03*
%TO.C,J7*%
X145309346Y-92620007D03*
%TO.C,J5*%
X145415000Y-55245000D03*
M02*
