%TF.GenerationSoftware,KiCad,Pcbnew,8.0.4*%
%TF.CreationDate,2024-10-15T16:01:28+03:00*%
%TF.ProjectId,projecsts,70726f6a-6563-4737-9473-2e6b69636164,rev?*%
%TF.SameCoordinates,Original*%
%TF.FileFunction,Drillmap*%
%TF.FilePolarity,Positive*%
%FSLAX45Y45*%
G04 Gerber Fmt 4.5, Leading zero omitted, Abs format (unit mm)*
G04 Created by KiCad (PCBNEW 8.0.4) date 2024-10-15 16:01:28*
%MOMM*%
%LPD*%
G01*
G04 APERTURE LIST*
%ADD10C,0.050000*%
%ADD11C,0.200000*%
G04 APERTURE END LIST*
D10*
X14833600Y-5760720D02*
G75*
G02*
X14899640Y-5694680I66040J0D01*
G01*
X14899640Y-9037320D02*
G75*
G02*
X14833600Y-8971280I0J66040D01*
G01*
X12339320Y-9687560D02*
G75*
G02*
X12273280Y-9621520I0J66040D01*
G01*
X12273280Y-5105400D02*
G75*
G02*
X12334240Y-5044440I60960J0D01*
G01*
X15311120Y-5694680D02*
X15311120Y-5044440D01*
X14899640Y-5694680D02*
X15311120Y-5694680D01*
X15311120Y-9037320D02*
X14899640Y-9037320D01*
X15311120Y-9687560D02*
X15311120Y-9037320D01*
X12339320Y-9687560D02*
X15311120Y-9687560D01*
X12273280Y-5105400D02*
X12273280Y-9621520D01*
X15311120Y-5044440D02*
X12334240Y-5044440D01*
X14833600Y-5760720D02*
X14833600Y-8971280D01*
D11*
X12531557Y-10001544D02*
X12531557Y-9801544D01*
X12531557Y-9801544D02*
X12579176Y-9801544D01*
X12579176Y-9801544D02*
X12607747Y-9811068D01*
X12607747Y-9811068D02*
X12626795Y-9830115D01*
X12626795Y-9830115D02*
X12636319Y-9849163D01*
X12636319Y-9849163D02*
X12645842Y-9887258D01*
X12645842Y-9887258D02*
X12645842Y-9915830D01*
X12645842Y-9915830D02*
X12636319Y-9953925D01*
X12636319Y-9953925D02*
X12626795Y-9972972D01*
X12626795Y-9972972D02*
X12607747Y-9992020D01*
X12607747Y-9992020D02*
X12579176Y-10001544D01*
X12579176Y-10001544D02*
X12531557Y-10001544D01*
X12731557Y-10001544D02*
X12731557Y-9868210D01*
X12731557Y-9906306D02*
X12741081Y-9887258D01*
X12741081Y-9887258D02*
X12750604Y-9877734D01*
X12750604Y-9877734D02*
X12769652Y-9868210D01*
X12769652Y-9868210D02*
X12788700Y-9868210D01*
X12855366Y-10001544D02*
X12855366Y-9868210D01*
X12855366Y-9801544D02*
X12845842Y-9811068D01*
X12845842Y-9811068D02*
X12855366Y-9820591D01*
X12855366Y-9820591D02*
X12864890Y-9811068D01*
X12864890Y-9811068D02*
X12855366Y-9801544D01*
X12855366Y-9801544D02*
X12855366Y-9820591D01*
X12979176Y-10001544D02*
X12960128Y-9992020D01*
X12960128Y-9992020D02*
X12950604Y-9972972D01*
X12950604Y-9972972D02*
X12950604Y-9801544D01*
X13083938Y-10001544D02*
X13064890Y-9992020D01*
X13064890Y-9992020D02*
X13055366Y-9972972D01*
X13055366Y-9972972D02*
X13055366Y-9801544D01*
X13312509Y-10001544D02*
X13312509Y-9801544D01*
X13312509Y-9801544D02*
X13379176Y-9944401D01*
X13379176Y-9944401D02*
X13445842Y-9801544D01*
X13445842Y-9801544D02*
X13445842Y-10001544D01*
X13626795Y-10001544D02*
X13626795Y-9896782D01*
X13626795Y-9896782D02*
X13617271Y-9877734D01*
X13617271Y-9877734D02*
X13598223Y-9868210D01*
X13598223Y-9868210D02*
X13560128Y-9868210D01*
X13560128Y-9868210D02*
X13541081Y-9877734D01*
X13626795Y-9992020D02*
X13607747Y-10001544D01*
X13607747Y-10001544D02*
X13560128Y-10001544D01*
X13560128Y-10001544D02*
X13541081Y-9992020D01*
X13541081Y-9992020D02*
X13531557Y-9972972D01*
X13531557Y-9972972D02*
X13531557Y-9953925D01*
X13531557Y-9953925D02*
X13541081Y-9934877D01*
X13541081Y-9934877D02*
X13560128Y-9925353D01*
X13560128Y-9925353D02*
X13607747Y-9925353D01*
X13607747Y-9925353D02*
X13626795Y-9915830D01*
X13722033Y-9868210D02*
X13722033Y-10068210D01*
X13722033Y-9877734D02*
X13741081Y-9868210D01*
X13741081Y-9868210D02*
X13779176Y-9868210D01*
X13779176Y-9868210D02*
X13798223Y-9877734D01*
X13798223Y-9877734D02*
X13807747Y-9887258D01*
X13807747Y-9887258D02*
X13817271Y-9906306D01*
X13817271Y-9906306D02*
X13817271Y-9963449D01*
X13817271Y-9963449D02*
X13807747Y-9982496D01*
X13807747Y-9982496D02*
X13798223Y-9992020D01*
X13798223Y-9992020D02*
X13779176Y-10001544D01*
X13779176Y-10001544D02*
X13741081Y-10001544D01*
X13741081Y-10001544D02*
X13722033Y-9992020D01*
X13902985Y-9982496D02*
X13912509Y-9992020D01*
X13912509Y-9992020D02*
X13902985Y-10001544D01*
X13902985Y-10001544D02*
X13893462Y-9992020D01*
X13893462Y-9992020D02*
X13902985Y-9982496D01*
X13902985Y-9982496D02*
X13902985Y-10001544D01*
X13902985Y-9877734D02*
X13912509Y-9887258D01*
X13912509Y-9887258D02*
X13902985Y-9896782D01*
X13902985Y-9896782D02*
X13893462Y-9887258D01*
X13893462Y-9887258D02*
X13902985Y-9877734D01*
X13902985Y-9877734D02*
X13902985Y-9896782D01*
M02*
