%TF.GenerationSoftware,KiCad,Pcbnew,8.0.4*%
%TF.CreationDate,2024-10-15T16:21:02+03:00*%
%TF.ProjectId,projecsts,70726f6a-6563-4737-9473-2e6b69636164,rev?*%
%TF.SameCoordinates,Original*%
%TF.FileFunction,Copper,L1,Top*%
%TF.FilePolarity,Positive*%
%FSLAX46Y46*%
G04 Gerber Fmt 4.6, Leading zero omitted, Abs format (unit mm)*
G04 Created by KiCad (PCBNEW 8.0.4) date 2024-10-15 16:21:02*
%MOMM*%
%LPD*%
G01*
G04 APERTURE LIST*
G04 Aperture macros list*
%AMRoundRect*
0 Rectangle with rounded corners*
0 $1 Rounding radius*
0 $2 $3 $4 $5 $6 $7 $8 $9 X,Y pos of 4 corners*
0 Add a 4 corners polygon primitive as box body*
4,1,4,$2,$3,$4,$5,$6,$7,$8,$9,$2,$3,0*
0 Add four circle primitives for the rounded corners*
1,1,$1+$1,$2,$3*
1,1,$1+$1,$4,$5*
1,1,$1+$1,$6,$7*
1,1,$1+$1,$8,$9*
0 Add four rect primitives between the rounded corners*
20,1,$1+$1,$2,$3,$4,$5,0*
20,1,$1+$1,$4,$5,$6,$7,0*
20,1,$1+$1,$6,$7,$8,$9,0*
20,1,$1+$1,$8,$9,$2,$3,0*%
G04 Aperture macros list end*
%TA.AperFunction,ComponentPad*%
%ADD10R,3.000000X3.000000*%
%TD*%
%TA.AperFunction,ComponentPad*%
%ADD11C,3.000000*%
%TD*%
%TA.AperFunction,ComponentPad*%
%ADD12R,1.700000X1.700000*%
%TD*%
%TA.AperFunction,ComponentPad*%
%ADD13O,1.700000X1.700000*%
%TD*%
%TA.AperFunction,ComponentPad*%
%ADD14C,1.600000*%
%TD*%
%TA.AperFunction,ComponentPad*%
%ADD15R,3.500000X3.500000*%
%TD*%
%TA.AperFunction,ComponentPad*%
%ADD16RoundRect,0.750000X-0.750000X-1.000000X0.750000X-1.000000X0.750000X1.000000X-0.750000X1.000000X0*%
%TD*%
%TA.AperFunction,ComponentPad*%
%ADD17RoundRect,0.875000X-0.875000X-0.875000X0.875000X-0.875000X0.875000X0.875000X-0.875000X0.875000X0*%
%TD*%
%TA.AperFunction,ComponentPad*%
%ADD18R,1.800000X1.800000*%
%TD*%
%TA.AperFunction,ComponentPad*%
%ADD19C,1.800000*%
%TD*%
%TA.AperFunction,ComponentPad*%
%ADD20C,1.400000*%
%TD*%
%TA.AperFunction,ComponentPad*%
%ADD21O,1.400000X1.400000*%
%TD*%
%TA.AperFunction,ComponentPad*%
%ADD22R,1.905000X2.000000*%
%TD*%
%TA.AperFunction,ComponentPad*%
%ADD23O,1.905000X2.000000*%
%TD*%
%TA.AperFunction,ComponentPad*%
%ADD24R,1.900000X1.900000*%
%TD*%
%TA.AperFunction,ComponentPad*%
%ADD25C,1.900000*%
%TD*%
%TA.AperFunction,ViaPad*%
%ADD26C,0.900000*%
%TD*%
%TA.AperFunction,Conductor*%
%ADD27C,0.350000*%
%TD*%
%TA.AperFunction,Conductor*%
%ADD28C,0.200000*%
%TD*%
G04 APERTURE END LIST*
D10*
%TO.P,J7,1,Pin_1*%
%TO.N,GND*%
X145309346Y-92620007D03*
D11*
%TO.P,J7,2,Pin_2*%
%TO.N,/PWR_output_bot*%
X140229346Y-92620007D03*
%TD*%
D12*
%TO.P,J4,1,Pin_1*%
%TO.N,/3.3V*%
X130175000Y-52705000D03*
D13*
%TO.P,J4,2,Pin_2*%
%TO.N,/PWR_output_top*%
X132715000Y-52705000D03*
%TO.P,J4,3,Pin_3*%
%TO.N,/5V*%
X135255000Y-52705000D03*
%TD*%
D12*
%TO.P,J1,1,Pin_1*%
%TO.N,GND*%
X150989841Y-52415247D03*
D13*
%TO.P,J1,2,Pin_2*%
%TO.N,/PWR_output_top*%
X150989841Y-54955247D03*
%TD*%
D14*
%TO.P,C2,1*%
%TO.N,/5V*%
X126385000Y-58420000D03*
%TO.P,C2,2*%
%TO.N,GND*%
X128885000Y-58420000D03*
%TD*%
D15*
%TO.P,J6,1*%
%TO.N,/PWR_input*%
X137445000Y-73025000D03*
D16*
%TO.P,J6,2*%
%TO.N,GND*%
X131445000Y-73025000D03*
D17*
%TO.P,J6,3*%
X134445000Y-77725000D03*
%TD*%
D14*
%TO.P,C3,1*%
%TO.N,/3.3V*%
X126385000Y-89535000D03*
%TO.P,C3,2*%
%TO.N,GND*%
X128885000Y-89535000D03*
%TD*%
D12*
%TO.P,J3,1,Pin_1*%
%TO.N,GND*%
X150933752Y-92373739D03*
D13*
%TO.P,J3,2,Pin_2*%
%TO.N,/PWR_output_bot*%
X150933752Y-94913739D03*
%TD*%
D18*
%TO.P,D1,1,K*%
%TO.N,Net-(D1-K)*%
X142875000Y-73025000D03*
D19*
%TO.P,D1,2,A*%
%TO.N,GND*%
X145415000Y-73025000D03*
%TD*%
D14*
%TO.P,C1,1*%
%TO.N,/12V*%
X131465000Y-58420000D03*
%TO.P,C1,2*%
%TO.N,GND*%
X133965000Y-58420000D03*
%TD*%
D12*
%TO.P,J2,1,Pin_1*%
%TO.N,/3.3V*%
X130175000Y-94615000D03*
D13*
%TO.P,J2,2,Pin_2*%
%TO.N,/PWR_output_bot*%
X132715000Y-94615000D03*
%TO.P,J2,3,Pin_3*%
%TO.N,/5V*%
X135255000Y-94615000D03*
%TD*%
D20*
%TO.P,R3,1*%
%TO.N,GND*%
X138430000Y-81280000D03*
D21*
%TO.P,R3,2*%
%TO.N,Net-(U2-ADJ)*%
X146050000Y-81280000D03*
%TD*%
D20*
%TO.P,R1,1*%
%TO.N,/12V*%
X137795000Y-66675000D03*
D21*
%TO.P,R1,2*%
%TO.N,Net-(D1-K)*%
X145415000Y-66675000D03*
%TD*%
D20*
%TO.P,R2,1*%
%TO.N,Net-(U2-ADJ)*%
X138430000Y-85090000D03*
D21*
%TO.P,R2,2*%
%TO.N,/3.3V*%
X146050000Y-85090000D03*
%TD*%
D22*
%TO.P,U2,1,ADJ*%
%TO.N,Net-(U2-ADJ)*%
X126365000Y-83820000D03*
D23*
%TO.P,U2,2,VO*%
%TO.N,/3.3V*%
X128905000Y-83820000D03*
%TO.P,U2,3,VI*%
%TO.N,/12V*%
X131445000Y-83820000D03*
%TD*%
D24*
%TO.P,S2,1*%
%TO.N,/12V*%
X139225000Y-62230000D03*
D25*
%TO.P,S2,2*%
%TO.N,/PWR_input*%
X141725000Y-62230000D03*
%TO.P,S2,3*%
%TO.N,unconnected-(S2-Pad3)*%
X144225000Y-62230000D03*
%TD*%
D22*
%TO.P,U1,1,VI*%
%TO.N,/12V*%
X131445000Y-63190000D03*
D23*
%TO.P,U1,2,GND*%
%TO.N,GND*%
X128905000Y-63190000D03*
%TO.P,U1,3,VO*%
%TO.N,/5V*%
X126365000Y-63190000D03*
%TD*%
D10*
%TO.P,J5,1,Pin_1*%
%TO.N,GND*%
X140335000Y-55245000D03*
D11*
%TO.P,J5,2,Pin_2*%
%TO.N,/PWR_output_top*%
X145415000Y-55245000D03*
%TD*%
D26*
%TO.N,/3.3V*%
X125272800Y-79451200D03*
%TD*%
D27*
%TO.N,/PWR_output_top*%
X141600000Y-51430000D02*
X145415000Y-55245000D01*
X132715000Y-52705000D02*
X133990000Y-51430000D01*
X133990000Y-51430000D02*
X141600000Y-51430000D01*
X150989841Y-54955247D02*
X145704753Y-54955247D01*
X145704753Y-54955247D02*
X145415000Y-55245000D01*
%TO.N,/PWR_output_bot*%
X142523078Y-94913739D02*
X140229346Y-92620007D01*
X150933752Y-94913739D02*
X142523078Y-94913739D01*
X134709993Y-92620007D02*
X140229346Y-92620007D01*
X132715000Y-94615000D02*
X134709993Y-92620007D01*
%TO.N,/12V*%
X135270000Y-72611702D02*
X135270000Y-69200000D01*
X131465000Y-58420000D02*
X131465000Y-63170000D01*
X131465000Y-63170000D02*
X131445000Y-63190000D01*
X137795000Y-66675000D02*
X137795000Y-63660000D01*
X131445000Y-76436702D02*
X135270000Y-72611702D01*
X131445000Y-83820000D02*
X131445000Y-76436702D01*
X134310000Y-63190000D02*
X137795000Y-66675000D01*
X135270000Y-69200000D02*
X137795000Y-66675000D01*
X137795000Y-63660000D02*
X139225000Y-62230000D01*
X131445000Y-63190000D02*
X134310000Y-63190000D01*
%TO.N,/5V*%
X126385000Y-58420000D02*
X126385000Y-63170000D01*
X133980000Y-53980000D02*
X130825000Y-53980000D01*
X126385000Y-63170000D02*
X126365000Y-63190000D01*
X130825000Y-53980000D02*
X126385000Y-58420000D01*
X126365000Y-80168972D02*
X124387500Y-82146472D01*
X135255000Y-52705000D02*
X133980000Y-53980000D01*
X129210600Y-96200600D02*
X133669400Y-96200600D01*
X124387500Y-82146472D02*
X124387500Y-91377500D01*
X126365000Y-63190000D02*
X126365000Y-80168972D01*
X124387500Y-91377500D02*
X129210600Y-96200600D01*
X133669400Y-96200600D02*
X135255000Y-94615000D01*
%TO.N,/3.3V*%
X146050000Y-85090000D02*
X144925000Y-86215000D01*
X124987500Y-82395000D02*
X128775400Y-82395000D01*
X124987500Y-79165900D02*
X125272800Y-79451200D01*
X144925000Y-86215000D02*
X131300000Y-86215000D01*
X126385000Y-89535000D02*
X124987500Y-88137500D01*
X130175000Y-93325000D02*
X126385000Y-89535000D01*
X124987500Y-88137500D02*
X124987500Y-82395000D01*
X128905000Y-82524600D02*
X128905000Y-83820000D01*
X124987500Y-57892500D02*
X124987500Y-79165900D01*
X130175000Y-52705000D02*
X124987500Y-57892500D01*
X131300000Y-86215000D02*
X128905000Y-83820000D01*
X128775400Y-82395000D02*
X128905000Y-82524600D01*
X130175000Y-94615000D02*
X130175000Y-93325000D01*
D28*
%TO.N,Net-(D1-K)*%
X145415000Y-70485000D02*
X142875000Y-73025000D01*
X145415000Y-66675000D02*
X145415000Y-70485000D01*
D27*
%TO.N,/PWR_input*%
X141725000Y-68745000D02*
X137445000Y-73025000D01*
X141725000Y-62230000D02*
X141725000Y-68745000D01*
D28*
%TO.N,Net-(U2-ADJ)*%
X129285000Y-86740000D02*
X146279600Y-86740000D01*
X142240000Y-81280000D02*
X138430000Y-85090000D01*
X147100000Y-85919600D02*
X147100000Y-82330000D01*
X147100000Y-82330000D02*
X146050000Y-81280000D01*
X146279600Y-86740000D02*
X147100000Y-85919600D01*
X146050000Y-81280000D02*
X142240000Y-81280000D01*
X126365000Y-83820000D02*
X129285000Y-86740000D01*
D27*
%TO.N,/PWR_output_top*%
X150700088Y-55245000D02*
X150989841Y-54955247D01*
%TD*%
M02*
