%TF.GenerationSoftware,KiCad,Pcbnew,8.0.4*%
%TF.CreationDate,2024-10-15T16:21:03+03:00*%
%TF.ProjectId,projecsts,70726f6a-6563-4737-9473-2e6b69636164,rev?*%
%TF.SameCoordinates,Original*%
%TF.FileFunction,Legend,Bot*%
%TF.FilePolarity,Positive*%
%FSLAX46Y46*%
G04 Gerber Fmt 4.6, Leading zero omitted, Abs format (unit mm)*
G04 Created by KiCad (PCBNEW 8.0.4) date 2024-10-15 16:21:03*
%MOMM*%
%LPD*%
G01*
G04 APERTURE LIST*
%ADD10C,0.150000*%
%ADD11C,0.120000*%
G04 APERTURE END LIST*
D10*
X176034501Y-52566666D02*
X176748786Y-52566666D01*
X176748786Y-52566666D02*
X176891643Y-52519047D01*
X176891643Y-52519047D02*
X176986882Y-52423809D01*
X176986882Y-52423809D02*
X177034501Y-52280952D01*
X177034501Y-52280952D02*
X177034501Y-52185714D01*
X177034501Y-53566666D02*
X177034501Y-52995238D01*
X177034501Y-53280952D02*
X176034501Y-53280952D01*
X176034501Y-53280952D02*
X176177358Y-53185714D01*
X176177358Y-53185714D02*
X176272596Y-53090476D01*
X176272596Y-53090476D02*
X176320215Y-52995238D01*
X134954819Y-88666666D02*
X135669104Y-88666666D01*
X135669104Y-88666666D02*
X135811961Y-88619047D01*
X135811961Y-88619047D02*
X135907200Y-88523809D01*
X135907200Y-88523809D02*
X135954819Y-88380952D01*
X135954819Y-88380952D02*
X135954819Y-88285714D01*
X134954819Y-89047619D02*
X134954819Y-89666666D01*
X134954819Y-89666666D02*
X135335771Y-89333333D01*
X135335771Y-89333333D02*
X135335771Y-89476190D01*
X135335771Y-89476190D02*
X135383390Y-89571428D01*
X135383390Y-89571428D02*
X135431009Y-89619047D01*
X135431009Y-89619047D02*
X135526247Y-89666666D01*
X135526247Y-89666666D02*
X135764342Y-89666666D01*
X135764342Y-89666666D02*
X135859580Y-89619047D01*
X135859580Y-89619047D02*
X135907200Y-89571428D01*
X135907200Y-89571428D02*
X135954819Y-89476190D01*
X135954819Y-89476190D02*
X135954819Y-89190476D01*
X135954819Y-89190476D02*
X135907200Y-89095238D01*
X135907200Y-89095238D02*
X135859580Y-89047619D01*
D11*
%TO.C,J1*%
X152319841Y-56285247D02*
X152319841Y-51085247D01*
X152319841Y-51085247D02*
X152259841Y-51085247D01*
X152259841Y-53685247D02*
X152259841Y-51085247D01*
X149659841Y-53685247D02*
X152259841Y-53685247D01*
X149659841Y-51085247D02*
X150989841Y-51085247D01*
X149659841Y-52415247D02*
X149659841Y-51085247D01*
X149659841Y-56285247D02*
X149659841Y-53685247D01*
X152319841Y-56285247D02*
X149659841Y-56285247D01*
%TO.C,J3*%
X152263752Y-96243739D02*
X152263752Y-91043739D01*
X152263752Y-91043739D02*
X152203752Y-91043739D01*
X152203752Y-93643739D02*
X152203752Y-91043739D01*
X149603752Y-93643739D02*
X152203752Y-93643739D01*
X149603752Y-91043739D02*
X150933752Y-91043739D01*
X149603752Y-92373739D02*
X149603752Y-91043739D01*
X149603752Y-96243739D02*
X149603752Y-93643739D01*
X152263752Y-96243739D02*
X149603752Y-96243739D01*
%TD*%
M02*
