%TF.GenerationSoftware,KiCad,Pcbnew,8.0.4*%
%TF.CreationDate,2024-10-15T16:21:02+03:00*%
%TF.ProjectId,projecsts,70726f6a-6563-4737-9473-2e6b69636164,rev?*%
%TF.SameCoordinates,Original*%
%TF.FileFunction,Copper,L2,Bot*%
%TF.FilePolarity,Positive*%
%FSLAX46Y46*%
G04 Gerber Fmt 4.6, Leading zero omitted, Abs format (unit mm)*
G04 Created by KiCad (PCBNEW 8.0.4) date 2024-10-15 16:21:02*
%MOMM*%
%LPD*%
G01*
G04 APERTURE LIST*
G04 Aperture macros list*
%AMRoundRect*
0 Rectangle with rounded corners*
0 $1 Rounding radius*
0 $2 $3 $4 $5 $6 $7 $8 $9 X,Y pos of 4 corners*
0 Add a 4 corners polygon primitive as box body*
4,1,4,$2,$3,$4,$5,$6,$7,$8,$9,$2,$3,0*
0 Add four circle primitives for the rounded corners*
1,1,$1+$1,$2,$3*
1,1,$1+$1,$4,$5*
1,1,$1+$1,$6,$7*
1,1,$1+$1,$8,$9*
0 Add four rect primitives between the rounded corners*
20,1,$1+$1,$2,$3,$4,$5,0*
20,1,$1+$1,$4,$5,$6,$7,0*
20,1,$1+$1,$6,$7,$8,$9,0*
20,1,$1+$1,$8,$9,$2,$3,0*%
G04 Aperture macros list end*
%TA.AperFunction,ComponentPad*%
%ADD10R,3.000000X3.000000*%
%TD*%
%TA.AperFunction,ComponentPad*%
%ADD11C,3.000000*%
%TD*%
%TA.AperFunction,ComponentPad*%
%ADD12R,1.700000X1.700000*%
%TD*%
%TA.AperFunction,ComponentPad*%
%ADD13O,1.700000X1.700000*%
%TD*%
%TA.AperFunction,ComponentPad*%
%ADD14C,1.600000*%
%TD*%
%TA.AperFunction,ComponentPad*%
%ADD15R,3.500000X3.500000*%
%TD*%
%TA.AperFunction,ComponentPad*%
%ADD16RoundRect,0.750000X-0.750000X-1.000000X0.750000X-1.000000X0.750000X1.000000X-0.750000X1.000000X0*%
%TD*%
%TA.AperFunction,ComponentPad*%
%ADD17RoundRect,0.875000X-0.875000X-0.875000X0.875000X-0.875000X0.875000X0.875000X-0.875000X0.875000X0*%
%TD*%
%TA.AperFunction,ComponentPad*%
%ADD18R,1.800000X1.800000*%
%TD*%
%TA.AperFunction,ComponentPad*%
%ADD19C,1.800000*%
%TD*%
%TA.AperFunction,ComponentPad*%
%ADD20C,1.400000*%
%TD*%
%TA.AperFunction,ComponentPad*%
%ADD21O,1.400000X1.400000*%
%TD*%
%TA.AperFunction,ComponentPad*%
%ADD22R,1.905000X2.000000*%
%TD*%
%TA.AperFunction,ComponentPad*%
%ADD23O,1.905000X2.000000*%
%TD*%
%TA.AperFunction,ComponentPad*%
%ADD24R,1.900000X1.900000*%
%TD*%
%TA.AperFunction,ComponentPad*%
%ADD25C,1.900000*%
%TD*%
%TA.AperFunction,ViaPad*%
%ADD26C,0.900000*%
%TD*%
%TA.AperFunction,Conductor*%
%ADD27C,0.200000*%
%TD*%
%TA.AperFunction,Conductor*%
%ADD28C,0.350000*%
%TD*%
G04 APERTURE END LIST*
D10*
%TO.P,J7,1,Pin_1*%
%TO.N,GND*%
X145309346Y-92620007D03*
D11*
%TO.P,J7,2,Pin_2*%
%TO.N,/PWR_output_bot*%
X140229346Y-92620007D03*
%TD*%
D12*
%TO.P,J4,1,Pin_1*%
%TO.N,/3.3V*%
X130175000Y-52705000D03*
D13*
%TO.P,J4,2,Pin_2*%
%TO.N,/PWR_output_top*%
X132715000Y-52705000D03*
%TO.P,J4,3,Pin_3*%
%TO.N,/5V*%
X135255000Y-52705000D03*
%TD*%
D12*
%TO.P,J1,1,Pin_1*%
%TO.N,GND*%
X150989841Y-52415247D03*
D13*
%TO.P,J1,2,Pin_2*%
%TO.N,/PWR_output_top*%
X150989841Y-54955247D03*
%TD*%
D14*
%TO.P,C2,1*%
%TO.N,/5V*%
X126385000Y-58420000D03*
%TO.P,C2,2*%
%TO.N,GND*%
X128885000Y-58420000D03*
%TD*%
D15*
%TO.P,J6,1*%
%TO.N,/PWR_input*%
X137445000Y-73025000D03*
D16*
%TO.P,J6,2*%
%TO.N,GND*%
X131445000Y-73025000D03*
D17*
%TO.P,J6,3*%
X134445000Y-77725000D03*
%TD*%
D14*
%TO.P,C3,1*%
%TO.N,/3.3V*%
X126385000Y-89535000D03*
%TO.P,C3,2*%
%TO.N,GND*%
X128885000Y-89535000D03*
%TD*%
D12*
%TO.P,J3,1,Pin_1*%
%TO.N,GND*%
X150933752Y-92373739D03*
D13*
%TO.P,J3,2,Pin_2*%
%TO.N,/PWR_output_bot*%
X150933752Y-94913739D03*
%TD*%
D18*
%TO.P,D1,1,K*%
%TO.N,Net-(D1-K)*%
X142875000Y-73025000D03*
D19*
%TO.P,D1,2,A*%
%TO.N,GND*%
X145415000Y-73025000D03*
%TD*%
D14*
%TO.P,C1,1*%
%TO.N,/12V*%
X131465000Y-58420000D03*
%TO.P,C1,2*%
%TO.N,GND*%
X133965000Y-58420000D03*
%TD*%
D12*
%TO.P,J2,1,Pin_1*%
%TO.N,/3.3V*%
X130175000Y-94615000D03*
D13*
%TO.P,J2,2,Pin_2*%
%TO.N,/PWR_output_bot*%
X132715000Y-94615000D03*
%TO.P,J2,3,Pin_3*%
%TO.N,/5V*%
X135255000Y-94615000D03*
%TD*%
D20*
%TO.P,R3,1*%
%TO.N,GND*%
X138430000Y-81280000D03*
D21*
%TO.P,R3,2*%
%TO.N,Net-(U2-ADJ)*%
X146050000Y-81280000D03*
%TD*%
D20*
%TO.P,R1,1*%
%TO.N,/12V*%
X137795000Y-66675000D03*
D21*
%TO.P,R1,2*%
%TO.N,Net-(D1-K)*%
X145415000Y-66675000D03*
%TD*%
D20*
%TO.P,R2,1*%
%TO.N,Net-(U2-ADJ)*%
X138430000Y-85090000D03*
D21*
%TO.P,R2,2*%
%TO.N,/3.3V*%
X146050000Y-85090000D03*
%TD*%
D22*
%TO.P,U2,1,ADJ*%
%TO.N,Net-(U2-ADJ)*%
X126365000Y-83820000D03*
D23*
%TO.P,U2,2,VO*%
%TO.N,/3.3V*%
X128905000Y-83820000D03*
%TO.P,U2,3,VI*%
%TO.N,/12V*%
X131445000Y-83820000D03*
%TD*%
D24*
%TO.P,S2,1*%
%TO.N,/12V*%
X139225000Y-62230000D03*
D25*
%TO.P,S2,2*%
%TO.N,/PWR_input*%
X141725000Y-62230000D03*
%TO.P,S2,3*%
%TO.N,unconnected-(S2-Pad3)*%
X144225000Y-62230000D03*
%TD*%
D22*
%TO.P,U1,1,VI*%
%TO.N,/12V*%
X131445000Y-63190000D03*
D23*
%TO.P,U1,2,GND*%
%TO.N,GND*%
X128905000Y-63190000D03*
%TO.P,U1,3,VO*%
%TO.N,/5V*%
X126365000Y-63190000D03*
%TD*%
D10*
%TO.P,J5,1,Pin_1*%
%TO.N,GND*%
X140335000Y-55245000D03*
D11*
%TO.P,J5,2,Pin_2*%
%TO.N,/PWR_output_top*%
X145415000Y-55245000D03*
%TD*%
D26*
%TO.N,/3.3V*%
X125272800Y-79451200D03*
%TD*%
D27*
%TO.N,GND*%
X145555614Y-92373739D02*
X145309346Y-92620007D01*
X150933752Y-92373739D02*
X145555614Y-92373739D01*
D28*
%TO.N,/3.3V*%
X128905000Y-83083400D02*
X128905000Y-83820000D01*
X125272800Y-79451200D02*
X128905000Y-83083400D01*
%TD*%
%TA.AperFunction,Conductor*%
%TO.N,GND*%
G36*
X149828668Y-50964585D02*
G01*
X149874423Y-51017389D01*
X149884367Y-51086547D01*
X149855342Y-51150103D01*
X149835940Y-51168166D01*
X149782653Y-51208056D01*
X149782650Y-51208059D01*
X149696490Y-51323153D01*
X149696486Y-51323160D01*
X149646244Y-51457867D01*
X149646242Y-51457874D01*
X149639841Y-51517402D01*
X149639841Y-52165247D01*
X150556829Y-52165247D01*
X150523916Y-52222254D01*
X150489841Y-52349421D01*
X150489841Y-52481073D01*
X150523916Y-52608240D01*
X150556829Y-52665247D01*
X149639841Y-52665247D01*
X149639841Y-53313091D01*
X149646242Y-53372619D01*
X149646244Y-53372626D01*
X149696486Y-53507333D01*
X149696490Y-53507340D01*
X149782650Y-53622434D01*
X149782653Y-53622437D01*
X149897747Y-53708597D01*
X149897754Y-53708601D01*
X150029311Y-53757668D01*
X150085244Y-53799539D01*
X150109662Y-53865003D01*
X150094811Y-53933276D01*
X150073660Y-53961531D01*
X149951344Y-54083847D01*
X149815806Y-54277416D01*
X149815805Y-54277418D01*
X149715939Y-54491582D01*
X149715935Y-54491591D01*
X149654779Y-54719833D01*
X149654777Y-54719843D01*
X149634182Y-54955246D01*
X149634182Y-54955247D01*
X149654777Y-55190650D01*
X149654779Y-55190660D01*
X149715935Y-55418902D01*
X149715937Y-55418906D01*
X149715938Y-55418910D01*
X149767940Y-55530428D01*
X149815806Y-55633077D01*
X149815808Y-55633081D01*
X149924122Y-55787768D01*
X149951346Y-55826648D01*
X150118440Y-55993742D01*
X150215225Y-56061512D01*
X150312006Y-56129279D01*
X150312008Y-56129280D01*
X150312011Y-56129282D01*
X150484935Y-56209918D01*
X150537374Y-56256090D01*
X150556526Y-56323284D01*
X150536310Y-56390165D01*
X150483145Y-56435500D01*
X150432530Y-56446300D01*
X148894833Y-56446300D01*
X148694791Y-56481573D01*
X148503914Y-56551047D01*
X148503904Y-56551051D01*
X148327989Y-56652615D01*
X148172383Y-56783183D01*
X148041815Y-56938789D01*
X147940251Y-57114704D01*
X147940247Y-57114714D01*
X147870773Y-57305591D01*
X147835500Y-57505633D01*
X147835500Y-89814366D01*
X147864968Y-89981488D01*
X147870774Y-90014411D01*
X147928141Y-90172026D01*
X147940247Y-90205285D01*
X147940251Y-90205295D01*
X148041815Y-90381210D01*
X148172383Y-90536816D01*
X148327989Y-90667384D01*
X148327990Y-90667385D01*
X148327992Y-90667386D01*
X148503909Y-90768951D01*
X148694789Y-90838426D01*
X148894834Y-90873700D01*
X148930508Y-90873700D01*
X149745203Y-90873700D01*
X149812242Y-90893385D01*
X149857997Y-90946189D01*
X149867941Y-91015347D01*
X149838916Y-91078903D01*
X149819514Y-91096966D01*
X149726564Y-91166548D01*
X149726561Y-91166551D01*
X149640401Y-91281645D01*
X149640397Y-91281652D01*
X149590155Y-91416359D01*
X149590153Y-91416366D01*
X149583752Y-91475894D01*
X149583752Y-92123739D01*
X150500740Y-92123739D01*
X150467827Y-92180746D01*
X150433752Y-92307913D01*
X150433752Y-92439565D01*
X150467827Y-92566732D01*
X150500740Y-92623739D01*
X149583752Y-92623739D01*
X149583752Y-93271583D01*
X149590153Y-93331111D01*
X149590155Y-93331118D01*
X149640397Y-93465825D01*
X149640401Y-93465832D01*
X149726561Y-93580926D01*
X149726564Y-93580929D01*
X149841658Y-93667089D01*
X149841665Y-93667093D01*
X149973222Y-93716160D01*
X150029155Y-93758031D01*
X150053573Y-93823495D01*
X150038722Y-93891768D01*
X150017571Y-93920023D01*
X149895255Y-94042339D01*
X149759717Y-94235908D01*
X149759716Y-94235910D01*
X149659850Y-94450074D01*
X149659846Y-94450083D01*
X149598690Y-94678325D01*
X149598688Y-94678335D01*
X149578093Y-94913738D01*
X149578093Y-94913739D01*
X149598688Y-95149142D01*
X149598690Y-95149152D01*
X149659846Y-95377394D01*
X149659848Y-95377398D01*
X149659849Y-95377402D01*
X149750817Y-95572483D01*
X149759717Y-95591569D01*
X149759719Y-95591573D01*
X149840777Y-95707335D01*
X149895257Y-95785140D01*
X150062351Y-95952234D01*
X150081297Y-95965500D01*
X150255917Y-96087771D01*
X150255919Y-96087772D01*
X150255922Y-96087774D01*
X150365172Y-96138718D01*
X150417611Y-96184890D01*
X150436763Y-96252084D01*
X150416547Y-96318965D01*
X150363382Y-96364300D01*
X150312767Y-96375100D01*
X123405412Y-96375100D01*
X123381220Y-96372717D01*
X123356200Y-96367740D01*
X123311504Y-96349227D01*
X123300642Y-96341969D01*
X123266430Y-96307757D01*
X123259171Y-96296893D01*
X123240659Y-96252199D01*
X123235681Y-96227174D01*
X123233300Y-96202987D01*
X123233300Y-93717135D01*
X128824500Y-93717135D01*
X128824500Y-95512870D01*
X128824501Y-95512876D01*
X128830908Y-95572483D01*
X128881202Y-95707328D01*
X128881206Y-95707335D01*
X128967452Y-95822544D01*
X128967455Y-95822547D01*
X129082664Y-95908793D01*
X129082671Y-95908797D01*
X129217517Y-95959091D01*
X129217516Y-95959091D01*
X129224444Y-95959835D01*
X129277127Y-95965500D01*
X131072872Y-95965499D01*
X131132483Y-95959091D01*
X131267331Y-95908796D01*
X131382546Y-95822546D01*
X131468796Y-95707331D01*
X131517810Y-95575916D01*
X131559681Y-95519984D01*
X131625145Y-95495566D01*
X131693418Y-95510417D01*
X131721673Y-95531569D01*
X131843599Y-95653495D01*
X131940384Y-95721265D01*
X132037165Y-95789032D01*
X132037167Y-95789033D01*
X132037170Y-95789035D01*
X132251337Y-95888903D01*
X132479592Y-95950063D01*
X132656034Y-95965500D01*
X132714999Y-95970659D01*
X132715000Y-95970659D01*
X132715001Y-95970659D01*
X132773966Y-95965500D01*
X132950408Y-95950063D01*
X133178663Y-95888903D01*
X133392830Y-95789035D01*
X133586401Y-95653495D01*
X133753495Y-95486401D01*
X133883425Y-95300842D01*
X133938002Y-95257217D01*
X134007500Y-95250023D01*
X134069855Y-95281546D01*
X134086575Y-95300842D01*
X134216500Y-95486395D01*
X134216505Y-95486401D01*
X134383599Y-95653495D01*
X134480384Y-95721265D01*
X134577165Y-95789032D01*
X134577167Y-95789033D01*
X134577170Y-95789035D01*
X134791337Y-95888903D01*
X135019592Y-95950063D01*
X135196034Y-95965500D01*
X135254999Y-95970659D01*
X135255000Y-95970659D01*
X135255001Y-95970659D01*
X135313966Y-95965500D01*
X135490408Y-95950063D01*
X135718663Y-95888903D01*
X135932830Y-95789035D01*
X136126401Y-95653495D01*
X136293495Y-95486401D01*
X136429035Y-95292830D01*
X136528903Y-95078663D01*
X136590063Y-94850408D01*
X136610659Y-94615000D01*
X136590063Y-94379592D01*
X136528903Y-94151337D01*
X136429035Y-93937171D01*
X136426391Y-93933394D01*
X136293494Y-93743597D01*
X136126402Y-93576506D01*
X136126395Y-93576501D01*
X135932834Y-93440967D01*
X135932830Y-93440965D01*
X135932828Y-93440964D01*
X135718663Y-93341097D01*
X135718659Y-93341096D01*
X135718655Y-93341094D01*
X135490413Y-93279938D01*
X135490403Y-93279936D01*
X135255001Y-93259341D01*
X135254999Y-93259341D01*
X135019596Y-93279936D01*
X135019586Y-93279938D01*
X134791344Y-93341094D01*
X134791335Y-93341098D01*
X134577171Y-93440964D01*
X134577169Y-93440965D01*
X134383597Y-93576505D01*
X134216505Y-93743597D01*
X134086575Y-93929158D01*
X134031998Y-93972783D01*
X133962500Y-93979977D01*
X133900145Y-93948454D01*
X133883425Y-93929158D01*
X133753494Y-93743597D01*
X133586402Y-93576506D01*
X133586395Y-93576501D01*
X133392834Y-93440967D01*
X133392830Y-93440965D01*
X133392828Y-93440964D01*
X133178663Y-93341097D01*
X133178659Y-93341096D01*
X133178655Y-93341094D01*
X132950413Y-93279938D01*
X132950403Y-93279936D01*
X132715001Y-93259341D01*
X132714999Y-93259341D01*
X132479596Y-93279936D01*
X132479586Y-93279938D01*
X132251344Y-93341094D01*
X132251335Y-93341098D01*
X132037171Y-93440964D01*
X132037169Y-93440965D01*
X131843600Y-93576503D01*
X131721673Y-93698430D01*
X131660350Y-93731914D01*
X131590658Y-93726930D01*
X131534725Y-93685058D01*
X131517810Y-93654081D01*
X131468797Y-93522671D01*
X131468793Y-93522664D01*
X131382547Y-93407455D01*
X131382544Y-93407452D01*
X131267335Y-93321206D01*
X131267328Y-93321202D01*
X131132482Y-93270908D01*
X131132483Y-93270908D01*
X131072883Y-93264501D01*
X131072881Y-93264500D01*
X131072873Y-93264500D01*
X131072864Y-93264500D01*
X129277129Y-93264500D01*
X129277123Y-93264501D01*
X129217516Y-93270908D01*
X129082671Y-93321202D01*
X129082664Y-93321206D01*
X128967455Y-93407452D01*
X128967452Y-93407455D01*
X128881206Y-93522664D01*
X128881202Y-93522671D01*
X128830908Y-93657517D01*
X128824501Y-93717116D01*
X128824500Y-93717135D01*
X123233300Y-93717135D01*
X123233300Y-92620005D01*
X138223736Y-92620005D01*
X138223736Y-92620008D01*
X138244150Y-92905440D01*
X138304974Y-93185044D01*
X138304976Y-93185050D01*
X138304977Y-93185053D01*
X138363179Y-93341097D01*
X138404981Y-93453173D01*
X138542116Y-93704316D01*
X138542121Y-93704324D01*
X138713600Y-93933394D01*
X138713616Y-93933412D01*
X138915940Y-94135736D01*
X138915958Y-94135752D01*
X139145028Y-94307231D01*
X139145036Y-94307236D01*
X139396179Y-94444371D01*
X139396178Y-94444371D01*
X139396182Y-94444372D01*
X139396185Y-94444374D01*
X139664300Y-94544376D01*
X139664306Y-94544377D01*
X139664308Y-94544378D01*
X139943912Y-94605202D01*
X139943914Y-94605202D01*
X139943918Y-94605203D01*
X140197566Y-94623344D01*
X140229345Y-94625617D01*
X140229346Y-94625617D01*
X140229347Y-94625617D01*
X140257941Y-94623571D01*
X140514774Y-94605203D01*
X140794392Y-94544376D01*
X141062507Y-94444374D01*
X141313661Y-94307233D01*
X141542741Y-94135746D01*
X141745085Y-93933402D01*
X141916572Y-93704322D01*
X142053713Y-93453168D01*
X142153715Y-93185053D01*
X142214542Y-92905435D01*
X142234956Y-92620007D01*
X142214542Y-92334579D01*
X142153715Y-92054961D01*
X142053713Y-91786846D01*
X141916572Y-91535692D01*
X141827241Y-91416359D01*
X141745091Y-91306619D01*
X141745075Y-91306601D01*
X141542751Y-91104277D01*
X141542733Y-91104261D01*
X141499854Y-91072162D01*
X143309346Y-91072162D01*
X143309346Y-92370007D01*
X144590282Y-92370007D01*
X144578553Y-92398323D01*
X144549346Y-92545154D01*
X144549346Y-92694860D01*
X144578553Y-92841691D01*
X144590282Y-92870007D01*
X143309346Y-92870007D01*
X143309346Y-94167851D01*
X143315747Y-94227379D01*
X143315749Y-94227386D01*
X143365991Y-94362093D01*
X143365995Y-94362100D01*
X143452155Y-94477194D01*
X143452158Y-94477197D01*
X143567252Y-94563357D01*
X143567259Y-94563361D01*
X143701966Y-94613603D01*
X143701973Y-94613605D01*
X143761501Y-94620006D01*
X143761518Y-94620007D01*
X145059346Y-94620007D01*
X145059346Y-93339071D01*
X145087662Y-93350800D01*
X145234493Y-93380007D01*
X145384199Y-93380007D01*
X145531030Y-93350800D01*
X145559346Y-93339071D01*
X145559346Y-94620007D01*
X146857174Y-94620007D01*
X146857190Y-94620006D01*
X146916718Y-94613605D01*
X146916725Y-94613603D01*
X147051432Y-94563361D01*
X147051439Y-94563357D01*
X147166533Y-94477197D01*
X147166536Y-94477194D01*
X147252696Y-94362100D01*
X147252700Y-94362093D01*
X147302942Y-94227386D01*
X147302944Y-94227379D01*
X147309345Y-94167851D01*
X147309346Y-94167834D01*
X147309346Y-92870007D01*
X146028410Y-92870007D01*
X146040139Y-92841691D01*
X146069346Y-92694860D01*
X146069346Y-92545154D01*
X146040139Y-92398323D01*
X146028410Y-92370007D01*
X147309346Y-92370007D01*
X147309346Y-91072179D01*
X147309345Y-91072162D01*
X147302944Y-91012634D01*
X147302942Y-91012627D01*
X147252700Y-90877920D01*
X147252696Y-90877913D01*
X147166536Y-90762819D01*
X147166533Y-90762816D01*
X147051439Y-90676656D01*
X147051432Y-90676652D01*
X146916725Y-90626410D01*
X146916718Y-90626408D01*
X146857190Y-90620007D01*
X145559346Y-90620007D01*
X145559346Y-91900942D01*
X145531030Y-91889214D01*
X145384199Y-91860007D01*
X145234493Y-91860007D01*
X145087662Y-91889214D01*
X145059346Y-91900942D01*
X145059346Y-90620007D01*
X143761501Y-90620007D01*
X143701973Y-90626408D01*
X143701966Y-90626410D01*
X143567259Y-90676652D01*
X143567252Y-90676656D01*
X143452158Y-90762816D01*
X143452155Y-90762819D01*
X143365995Y-90877913D01*
X143365991Y-90877920D01*
X143315749Y-91012627D01*
X143315747Y-91012634D01*
X143309346Y-91072162D01*
X141499854Y-91072162D01*
X141313663Y-90932782D01*
X141313655Y-90932777D01*
X141062512Y-90795642D01*
X141062513Y-90795642D01*
X140955261Y-90755639D01*
X140794392Y-90695638D01*
X140794389Y-90695637D01*
X140794383Y-90695635D01*
X140514779Y-90634811D01*
X140229347Y-90614397D01*
X140229345Y-90614397D01*
X139943912Y-90634811D01*
X139664308Y-90695635D01*
X139396179Y-90795642D01*
X139145036Y-90932777D01*
X139145028Y-90932782D01*
X138915958Y-91104261D01*
X138915940Y-91104277D01*
X138713616Y-91306601D01*
X138713600Y-91306619D01*
X138542121Y-91535689D01*
X138542116Y-91535697D01*
X138404981Y-91786840D01*
X138304974Y-92054969D01*
X138244150Y-92334573D01*
X138223736Y-92620005D01*
X123233300Y-92620005D01*
X123233300Y-89534998D01*
X125079532Y-89534998D01*
X125079532Y-89535001D01*
X125099364Y-89761686D01*
X125099366Y-89761697D01*
X125158258Y-89981488D01*
X125158261Y-89981497D01*
X125254431Y-90187732D01*
X125254432Y-90187734D01*
X125384954Y-90374141D01*
X125545858Y-90535045D01*
X125545861Y-90535047D01*
X125732266Y-90665568D01*
X125938504Y-90761739D01*
X125938509Y-90761740D01*
X125938511Y-90761741D01*
X125965423Y-90768952D01*
X126158308Y-90820635D01*
X126320230Y-90834801D01*
X126384998Y-90840468D01*
X126385000Y-90840468D01*
X126385002Y-90840468D01*
X126441673Y-90835509D01*
X126611692Y-90820635D01*
X126831496Y-90761739D01*
X127037734Y-90665568D01*
X127224139Y-90535047D01*
X127385047Y-90374139D01*
X127515568Y-90187734D01*
X127522893Y-90172024D01*
X127569064Y-90119586D01*
X127636257Y-90100433D01*
X127703138Y-90120648D01*
X127747657Y-90172024D01*
X127754864Y-90187480D01*
X127805974Y-90260472D01*
X128485000Y-89581446D01*
X128485000Y-89587661D01*
X128512259Y-89689394D01*
X128564920Y-89780606D01*
X128639394Y-89855080D01*
X128730606Y-89907741D01*
X128832339Y-89935000D01*
X128838553Y-89935000D01*
X128159526Y-90614025D01*
X128232513Y-90665132D01*
X128232521Y-90665136D01*
X128438668Y-90761264D01*
X128438682Y-90761269D01*
X128658389Y-90820139D01*
X128658400Y-90820141D01*
X128884998Y-90839966D01*
X128885002Y-90839966D01*
X129111599Y-90820141D01*
X129111610Y-90820139D01*
X129331317Y-90761269D01*
X129331331Y-90761264D01*
X129537478Y-90665136D01*
X129610471Y-90614024D01*
X128931447Y-89935000D01*
X128937661Y-89935000D01*
X129039394Y-89907741D01*
X129130606Y-89855080D01*
X129205080Y-89780606D01*
X129257741Y-89689394D01*
X129285000Y-89587661D01*
X129285000Y-89581447D01*
X129964024Y-90260471D01*
X130015136Y-90187478D01*
X130111264Y-89981331D01*
X130111269Y-89981317D01*
X130170139Y-89761610D01*
X130170141Y-89761599D01*
X130189966Y-89535002D01*
X130189966Y-89534997D01*
X130170141Y-89308400D01*
X130170139Y-89308389D01*
X130111269Y-89088682D01*
X130111264Y-89088668D01*
X130015136Y-88882521D01*
X130015132Y-88882513D01*
X129964025Y-88809526D01*
X129285000Y-89488551D01*
X129285000Y-89482339D01*
X129257741Y-89380606D01*
X129205080Y-89289394D01*
X129130606Y-89214920D01*
X129039394Y-89162259D01*
X128937661Y-89135000D01*
X128931448Y-89135000D01*
X129610472Y-88455974D01*
X129537478Y-88404863D01*
X129331331Y-88308735D01*
X129331317Y-88308730D01*
X129111610Y-88249860D01*
X129111599Y-88249858D01*
X128885002Y-88230034D01*
X128884998Y-88230034D01*
X128658400Y-88249858D01*
X128658389Y-88249860D01*
X128438682Y-88308730D01*
X128438673Y-88308734D01*
X128232516Y-88404866D01*
X128232512Y-88404868D01*
X128159526Y-88455973D01*
X128159526Y-88455974D01*
X128838553Y-89135000D01*
X128832339Y-89135000D01*
X128730606Y-89162259D01*
X128639394Y-89214920D01*
X128564920Y-89289394D01*
X128512259Y-89380606D01*
X128485000Y-89482339D01*
X128485000Y-89488552D01*
X127805974Y-88809526D01*
X127805973Y-88809526D01*
X127754868Y-88882512D01*
X127754867Y-88882514D01*
X127747656Y-88897979D01*
X127701482Y-88950417D01*
X127634288Y-88969567D01*
X127567407Y-88949350D01*
X127522893Y-88897976D01*
X127515568Y-88882266D01*
X127385047Y-88695861D01*
X127385045Y-88695858D01*
X127224141Y-88534954D01*
X127037734Y-88404432D01*
X127037732Y-88404431D01*
X126831497Y-88308261D01*
X126831488Y-88308258D01*
X126611697Y-88249366D01*
X126611693Y-88249365D01*
X126611692Y-88249365D01*
X126611691Y-88249364D01*
X126611686Y-88249364D01*
X126385002Y-88229532D01*
X126384998Y-88229532D01*
X126158313Y-88249364D01*
X126158302Y-88249366D01*
X125938511Y-88308258D01*
X125938502Y-88308261D01*
X125732267Y-88404431D01*
X125732265Y-88404432D01*
X125545858Y-88534954D01*
X125384954Y-88695858D01*
X125254432Y-88882265D01*
X125254431Y-88882267D01*
X125158261Y-89088502D01*
X125158258Y-89088511D01*
X125099366Y-89308302D01*
X125099364Y-89308313D01*
X125079532Y-89534998D01*
X123233300Y-89534998D01*
X123233300Y-79451200D01*
X124317701Y-79451200D01*
X124336052Y-79637531D01*
X124336053Y-79637533D01*
X124390404Y-79816702D01*
X124478662Y-79981823D01*
X124478664Y-79981826D01*
X124597442Y-80126557D01*
X124742173Y-80245335D01*
X124742176Y-80245337D01*
X124907297Y-80333595D01*
X124907299Y-80333596D01*
X125086469Y-80387947D01*
X125228421Y-80401927D01*
X125293208Y-80428087D01*
X125303948Y-80437649D01*
X126974117Y-82107819D01*
X127007602Y-82169142D01*
X127002618Y-82238834D01*
X126960746Y-82294767D01*
X126895282Y-82319184D01*
X126886436Y-82319500D01*
X125364629Y-82319500D01*
X125364623Y-82319501D01*
X125305016Y-82325908D01*
X125170171Y-82376202D01*
X125170164Y-82376206D01*
X125054955Y-82462452D01*
X125054952Y-82462455D01*
X124968706Y-82577664D01*
X124968702Y-82577671D01*
X124918408Y-82712517D01*
X124912001Y-82772116D01*
X124912000Y-82772135D01*
X124912000Y-84867870D01*
X124912001Y-84867876D01*
X124918408Y-84927483D01*
X124968702Y-85062328D01*
X124968706Y-85062335D01*
X125054952Y-85177544D01*
X125054955Y-85177547D01*
X125170164Y-85263793D01*
X125170171Y-85263797D01*
X125305017Y-85314091D01*
X125305016Y-85314091D01*
X125311944Y-85314835D01*
X125364627Y-85320500D01*
X127365372Y-85320499D01*
X127424983Y-85314091D01*
X127559831Y-85263796D01*
X127675046Y-85177546D01*
X127761296Y-85062331D01*
X127771690Y-85034460D01*
X127813560Y-84978527D01*
X127879023Y-84954108D01*
X127947297Y-84968958D01*
X127960746Y-84977465D01*
X128143462Y-85110217D01*
X128275599Y-85177544D01*
X128347244Y-85214049D01*
X128564751Y-85284721D01*
X128564752Y-85284721D01*
X128564755Y-85284722D01*
X128790646Y-85320500D01*
X128790647Y-85320500D01*
X129019353Y-85320500D01*
X129019354Y-85320500D01*
X129245245Y-85284722D01*
X129245248Y-85284721D01*
X129245249Y-85284721D01*
X129462755Y-85214049D01*
X129462755Y-85214048D01*
X129462758Y-85214048D01*
X129666538Y-85110217D01*
X129851566Y-84975786D01*
X130013286Y-84814066D01*
X130074683Y-84729559D01*
X130130012Y-84686896D01*
X130199625Y-84680917D01*
X130261420Y-84713523D01*
X130275314Y-84729556D01*
X130336714Y-84814066D01*
X130498434Y-84975786D01*
X130683462Y-85110217D01*
X130815599Y-85177544D01*
X130887244Y-85214049D01*
X131104751Y-85284721D01*
X131104752Y-85284721D01*
X131104755Y-85284722D01*
X131330646Y-85320500D01*
X131330647Y-85320500D01*
X131559353Y-85320500D01*
X131559354Y-85320500D01*
X131785245Y-85284722D01*
X131785248Y-85284721D01*
X131785249Y-85284721D01*
X132002755Y-85214049D01*
X132002755Y-85214048D01*
X132002758Y-85214048D01*
X132206538Y-85110217D01*
X132234366Y-85089999D01*
X137224357Y-85089999D01*
X137224357Y-85090000D01*
X137244884Y-85311535D01*
X137244885Y-85311537D01*
X137305769Y-85525523D01*
X137305775Y-85525538D01*
X137404938Y-85724683D01*
X137404943Y-85724691D01*
X137539020Y-85902238D01*
X137703437Y-86052123D01*
X137703439Y-86052125D01*
X137892595Y-86169245D01*
X137892596Y-86169245D01*
X137892599Y-86169247D01*
X138100060Y-86249618D01*
X138318757Y-86290500D01*
X138318759Y-86290500D01*
X138541241Y-86290500D01*
X138541243Y-86290500D01*
X138759940Y-86249618D01*
X138967401Y-86169247D01*
X139156562Y-86052124D01*
X139320981Y-85902236D01*
X139455058Y-85724689D01*
X139554229Y-85525528D01*
X139615115Y-85311536D01*
X139635643Y-85090000D01*
X139635643Y-85089999D01*
X144844357Y-85089999D01*
X144844357Y-85090000D01*
X144864884Y-85311535D01*
X144864885Y-85311537D01*
X144925769Y-85525523D01*
X144925775Y-85525538D01*
X145024938Y-85724683D01*
X145024943Y-85724691D01*
X145159020Y-85902238D01*
X145323437Y-86052123D01*
X145323439Y-86052125D01*
X145512595Y-86169245D01*
X145512596Y-86169245D01*
X145512599Y-86169247D01*
X145720060Y-86249618D01*
X145938757Y-86290500D01*
X145938759Y-86290500D01*
X146161241Y-86290500D01*
X146161243Y-86290500D01*
X146379940Y-86249618D01*
X146587401Y-86169247D01*
X146776562Y-86052124D01*
X146940981Y-85902236D01*
X147075058Y-85724689D01*
X147174229Y-85525528D01*
X147235115Y-85311536D01*
X147255643Y-85090000D01*
X147235115Y-84868464D01*
X147174229Y-84654472D01*
X147174224Y-84654461D01*
X147075061Y-84455316D01*
X147075056Y-84455308D01*
X146940979Y-84277761D01*
X146776562Y-84127876D01*
X146776560Y-84127874D01*
X146587404Y-84010754D01*
X146587398Y-84010752D01*
X146379940Y-83930382D01*
X146161243Y-83889500D01*
X145938757Y-83889500D01*
X145720060Y-83930382D01*
X145588864Y-83981207D01*
X145512601Y-84010752D01*
X145512595Y-84010754D01*
X145323439Y-84127874D01*
X145323437Y-84127876D01*
X145159020Y-84277761D01*
X145024943Y-84455308D01*
X145024938Y-84455316D01*
X144925775Y-84654461D01*
X144925769Y-84654476D01*
X144864885Y-84868462D01*
X144864884Y-84868464D01*
X144844357Y-85089999D01*
X139635643Y-85089999D01*
X139615115Y-84868464D01*
X139554229Y-84654472D01*
X139554224Y-84654461D01*
X139455061Y-84455316D01*
X139455056Y-84455308D01*
X139320979Y-84277761D01*
X139156562Y-84127876D01*
X139156560Y-84127874D01*
X138967404Y-84010754D01*
X138967398Y-84010752D01*
X138759940Y-83930382D01*
X138541243Y-83889500D01*
X138318757Y-83889500D01*
X138100060Y-83930382D01*
X137968864Y-83981207D01*
X137892601Y-84010752D01*
X137892595Y-84010754D01*
X137703439Y-84127874D01*
X137703437Y-84127876D01*
X137539020Y-84277761D01*
X137404943Y-84455308D01*
X137404938Y-84455316D01*
X137305775Y-84654461D01*
X137305769Y-84654476D01*
X137244885Y-84868462D01*
X137244884Y-84868464D01*
X137224357Y-85089999D01*
X132234366Y-85089999D01*
X132391566Y-84975786D01*
X132553286Y-84814066D01*
X132687717Y-84629038D01*
X132791548Y-84425258D01*
X132862222Y-84207745D01*
X132898000Y-83981854D01*
X132898000Y-83658146D01*
X132862222Y-83432255D01*
X132862221Y-83432251D01*
X132862221Y-83432250D01*
X132791549Y-83214744D01*
X132791548Y-83214742D01*
X132687717Y-83010962D01*
X132553286Y-82825934D01*
X132391566Y-82664214D01*
X132206538Y-82529783D01*
X132109815Y-82480500D01*
X132002755Y-82425950D01*
X131785248Y-82355278D01*
X131599812Y-82325908D01*
X131559354Y-82319500D01*
X131330646Y-82319500D01*
X131290188Y-82325908D01*
X131104753Y-82355278D01*
X131104750Y-82355278D01*
X130887244Y-82425950D01*
X130683461Y-82529783D01*
X130617550Y-82577671D01*
X130498434Y-82664214D01*
X130498432Y-82664216D01*
X130498431Y-82664216D01*
X130336715Y-82825932D01*
X130275318Y-82910438D01*
X130219987Y-82953103D01*
X130150374Y-82959082D01*
X130088579Y-82926476D01*
X130074682Y-82910438D01*
X130063773Y-82895423D01*
X130013286Y-82825934D01*
X129851566Y-82664214D01*
X129666538Y-82529783D01*
X129569815Y-82480500D01*
X129462755Y-82425950D01*
X129245243Y-82355277D01*
X129150692Y-82340301D01*
X129087558Y-82310371D01*
X129082411Y-82305509D01*
X129063781Y-82286879D01*
X137776672Y-82286879D01*
X137776672Y-82286880D01*
X137892821Y-82358797D01*
X137892822Y-82358798D01*
X138100195Y-82439134D01*
X138318807Y-82480000D01*
X138541193Y-82480000D01*
X138759809Y-82439133D01*
X138967168Y-82358801D01*
X138967181Y-82358795D01*
X139083326Y-82286879D01*
X138430001Y-81633553D01*
X138430000Y-81633553D01*
X137776672Y-82286879D01*
X129063781Y-82286879D01*
X128056901Y-81279999D01*
X137224859Y-81279999D01*
X137224859Y-81280000D01*
X137245378Y-81501439D01*
X137306240Y-81715350D01*
X137405369Y-81914428D01*
X137421137Y-81935308D01*
X137421138Y-81935308D01*
X138076447Y-81280000D01*
X138030369Y-81233922D01*
X138080000Y-81233922D01*
X138080000Y-81326078D01*
X138103852Y-81415095D01*
X138149930Y-81494905D01*
X138215095Y-81560070D01*
X138294905Y-81606148D01*
X138383922Y-81630000D01*
X138476078Y-81630000D01*
X138565095Y-81606148D01*
X138644905Y-81560070D01*
X138710070Y-81494905D01*
X138756148Y-81415095D01*
X138780000Y-81326078D01*
X138780000Y-81279999D01*
X138783553Y-81279999D01*
X138783553Y-81280000D01*
X139438861Y-81935308D01*
X139454631Y-81914425D01*
X139454633Y-81914422D01*
X139553759Y-81715350D01*
X139614621Y-81501439D01*
X139635141Y-81280000D01*
X139635141Y-81279999D01*
X144844357Y-81279999D01*
X144844357Y-81280000D01*
X144864884Y-81501535D01*
X144864885Y-81501537D01*
X144925769Y-81715523D01*
X144925775Y-81715538D01*
X145024938Y-81914683D01*
X145024943Y-81914691D01*
X145159020Y-82092238D01*
X145323437Y-82242123D01*
X145323439Y-82242125D01*
X145512595Y-82359245D01*
X145512596Y-82359245D01*
X145512599Y-82359247D01*
X145720060Y-82439618D01*
X145938757Y-82480500D01*
X145938759Y-82480500D01*
X146161241Y-82480500D01*
X146161243Y-82480500D01*
X146379940Y-82439618D01*
X146587401Y-82359247D01*
X146776562Y-82242124D01*
X146940981Y-82092236D01*
X147075058Y-81914689D01*
X147174229Y-81715528D01*
X147235115Y-81501536D01*
X147255643Y-81280000D01*
X147235115Y-81058464D01*
X147174229Y-80844472D01*
X147075188Y-80645572D01*
X147075061Y-80645316D01*
X147075056Y-80645308D01*
X146940979Y-80467761D01*
X146776562Y-80317876D01*
X146776560Y-80317874D01*
X146587404Y-80200754D01*
X146587398Y-80200752D01*
X146379940Y-80120382D01*
X146161243Y-80079500D01*
X145938757Y-80079500D01*
X145720060Y-80120382D01*
X145704121Y-80126557D01*
X145512601Y-80200752D01*
X145512595Y-80200754D01*
X145323439Y-80317874D01*
X145323437Y-80317876D01*
X145159020Y-80467761D01*
X145024943Y-80645308D01*
X145024938Y-80645316D01*
X144925775Y-80844461D01*
X144925769Y-80844476D01*
X144864885Y-81058462D01*
X144864884Y-81058464D01*
X144844357Y-81279999D01*
X139635141Y-81279999D01*
X139614621Y-81058560D01*
X139553759Y-80844649D01*
X139454635Y-80645580D01*
X139454630Y-80645572D01*
X139438860Y-80624690D01*
X138783553Y-81279999D01*
X138780000Y-81279999D01*
X138780000Y-81233922D01*
X138756148Y-81144905D01*
X138710070Y-81065095D01*
X138644905Y-80999930D01*
X138565095Y-80953852D01*
X138476078Y-80930000D01*
X138383922Y-80930000D01*
X138294905Y-80953852D01*
X138215095Y-80999930D01*
X138149930Y-81065095D01*
X138103852Y-81144905D01*
X138080000Y-81233922D01*
X138030369Y-81233922D01*
X137421138Y-80624691D01*
X137421137Y-80624691D01*
X137405368Y-80645574D01*
X137306240Y-80844649D01*
X137245378Y-81058560D01*
X137224859Y-81279999D01*
X128056901Y-81279999D01*
X127050020Y-80273119D01*
X137776671Y-80273119D01*
X138430000Y-80926447D01*
X138430001Y-80926447D01*
X139083327Y-80273119D01*
X138967178Y-80201202D01*
X138967177Y-80201201D01*
X138759804Y-80120865D01*
X138541193Y-80080000D01*
X138318807Y-80080000D01*
X138100195Y-80120865D01*
X137892824Y-80201200D01*
X137892823Y-80201201D01*
X137776671Y-80273119D01*
X127050020Y-80273119D01*
X126259249Y-79482348D01*
X126225764Y-79421025D01*
X126223527Y-79406820D01*
X126222545Y-79396848D01*
X126209547Y-79264869D01*
X126155196Y-79085699D01*
X126066936Y-78920575D01*
X126066935Y-78920573D01*
X125948157Y-78775842D01*
X125803426Y-78657064D01*
X125803423Y-78657062D01*
X125638302Y-78568804D01*
X125459133Y-78514453D01*
X125459131Y-78514452D01*
X125272800Y-78496101D01*
X125086468Y-78514452D01*
X125086466Y-78514453D01*
X124907297Y-78568804D01*
X124742176Y-78657062D01*
X124742173Y-78657064D01*
X124597442Y-78775842D01*
X124478664Y-78920573D01*
X124478662Y-78920576D01*
X124390404Y-79085697D01*
X124336053Y-79264866D01*
X124336052Y-79264868D01*
X124317701Y-79451200D01*
X123233300Y-79451200D01*
X123233300Y-76756421D01*
X132195000Y-76756421D01*
X132195000Y-77475000D01*
X133011988Y-77475000D01*
X132979075Y-77532007D01*
X132945000Y-77659174D01*
X132945000Y-77790826D01*
X132979075Y-77917993D01*
X133011988Y-77975000D01*
X132195001Y-77975000D01*
X132195001Y-78693588D01*
X132197794Y-78746191D01*
X132242237Y-78975987D01*
X132324879Y-79194975D01*
X132443339Y-79396841D01*
X132443344Y-79396848D01*
X132594211Y-79575786D01*
X132594213Y-79575788D01*
X132773151Y-79726655D01*
X132773158Y-79726660D01*
X132975024Y-79845120D01*
X133194012Y-79927762D01*
X133423809Y-79972205D01*
X133476382Y-79974998D01*
X133476421Y-79974999D01*
X134194999Y-79974999D01*
X134195000Y-79974998D01*
X134195000Y-78225000D01*
X134695000Y-78225000D01*
X134695000Y-79974999D01*
X135413576Y-79974999D01*
X135413588Y-79974998D01*
X135466191Y-79972205D01*
X135695987Y-79927762D01*
X135914975Y-79845120D01*
X136116841Y-79726660D01*
X136116848Y-79726655D01*
X136295786Y-79575788D01*
X136295788Y-79575786D01*
X136446655Y-79396848D01*
X136446660Y-79396841D01*
X136565120Y-79194975D01*
X136647762Y-78975987D01*
X136692205Y-78746191D01*
X136692205Y-78746190D01*
X136694998Y-78693617D01*
X136695000Y-78693578D01*
X136695000Y-77975000D01*
X135878012Y-77975000D01*
X135910925Y-77917993D01*
X135945000Y-77790826D01*
X135945000Y-77659174D01*
X135910925Y-77532007D01*
X135878012Y-77475000D01*
X136694999Y-77475000D01*
X136694999Y-76756423D01*
X136694998Y-76756411D01*
X136692205Y-76703808D01*
X136647762Y-76474012D01*
X136565120Y-76255024D01*
X136446660Y-76053158D01*
X136446655Y-76053151D01*
X136295788Y-75874213D01*
X136295786Y-75874211D01*
X136116848Y-75723344D01*
X136116841Y-75723339D01*
X135914975Y-75604879D01*
X135695984Y-75522236D01*
X135690840Y-75521241D01*
X135628760Y-75489180D01*
X135593869Y-75428646D01*
X135597244Y-75358858D01*
X135637814Y-75301973D01*
X135702697Y-75276052D01*
X135714374Y-75275499D01*
X139242872Y-75275499D01*
X139302483Y-75269091D01*
X139437331Y-75218796D01*
X139552546Y-75132546D01*
X139638796Y-75017331D01*
X139689091Y-74882483D01*
X139695500Y-74822873D01*
X139695499Y-72077135D01*
X141474500Y-72077135D01*
X141474500Y-73972870D01*
X141474501Y-73972876D01*
X141480908Y-74032483D01*
X141531202Y-74167328D01*
X141531206Y-74167335D01*
X141617452Y-74282544D01*
X141617455Y-74282547D01*
X141732664Y-74368793D01*
X141732671Y-74368797D01*
X141867517Y-74419091D01*
X141867516Y-74419091D01*
X141874444Y-74419835D01*
X141927127Y-74425500D01*
X143822872Y-74425499D01*
X143882483Y-74419091D01*
X144017331Y-74368796D01*
X144132546Y-74282546D01*
X144218796Y-74167331D01*
X144269091Y-74032483D01*
X144275500Y-73972873D01*
X144275499Y-73862304D01*
X144295183Y-73795268D01*
X144311818Y-73774626D01*
X144972861Y-73113584D01*
X144995667Y-73198694D01*
X145054910Y-73301306D01*
X145138694Y-73385090D01*
X145241306Y-73444333D01*
X145326414Y-73467138D01*
X144616201Y-74177351D01*
X144646649Y-74201050D01*
X144850697Y-74311476D01*
X144850706Y-74311479D01*
X145070139Y-74386811D01*
X145298993Y-74425000D01*
X145531007Y-74425000D01*
X145759860Y-74386811D01*
X145979293Y-74311479D01*
X145979301Y-74311476D01*
X146183355Y-74201047D01*
X146213797Y-74177351D01*
X146213798Y-74177350D01*
X145503585Y-73467137D01*
X145588694Y-73444333D01*
X145691306Y-73385090D01*
X145775090Y-73301306D01*
X145834333Y-73198694D01*
X145857138Y-73113585D01*
X146566186Y-73822633D01*
X146650482Y-73693611D01*
X146743682Y-73481135D01*
X146800638Y-73256218D01*
X146819798Y-73025005D01*
X146819798Y-73024994D01*
X146800638Y-72793781D01*
X146743682Y-72568864D01*
X146650484Y-72356393D01*
X146566186Y-72227365D01*
X145857137Y-72936414D01*
X145834333Y-72851306D01*
X145775090Y-72748694D01*
X145691306Y-72664910D01*
X145588694Y-72605667D01*
X145503584Y-72582861D01*
X146213797Y-71872647D01*
X146213797Y-71872645D01*
X146183360Y-71848955D01*
X146183354Y-71848951D01*
X145979302Y-71738523D01*
X145979293Y-71738520D01*
X145759860Y-71663188D01*
X145531007Y-71625000D01*
X145298993Y-71625000D01*
X145070139Y-71663188D01*
X144850706Y-71738520D01*
X144850697Y-71738523D01*
X144646650Y-71848949D01*
X144616200Y-71872647D01*
X145326415Y-72582861D01*
X145241306Y-72605667D01*
X145138694Y-72664910D01*
X145054910Y-72748694D01*
X144995667Y-72851306D01*
X144972861Y-72936415D01*
X144311818Y-72275372D01*
X144278333Y-72214049D01*
X144275499Y-72187691D01*
X144275499Y-72077129D01*
X144275498Y-72077123D01*
X144275497Y-72077116D01*
X144269091Y-72017517D01*
X144247943Y-71960817D01*
X144218797Y-71882671D01*
X144218793Y-71882664D01*
X144132547Y-71767455D01*
X144132544Y-71767452D01*
X144017335Y-71681206D01*
X144017328Y-71681202D01*
X143882482Y-71630908D01*
X143882483Y-71630908D01*
X143822883Y-71624501D01*
X143822881Y-71624500D01*
X143822873Y-71624500D01*
X143822864Y-71624500D01*
X141927129Y-71624500D01*
X141927123Y-71624501D01*
X141867516Y-71630908D01*
X141732671Y-71681202D01*
X141732664Y-71681206D01*
X141617455Y-71767452D01*
X141617452Y-71767455D01*
X141531206Y-71882664D01*
X141531202Y-71882671D01*
X141480908Y-72017517D01*
X141474501Y-72077116D01*
X141474501Y-72077123D01*
X141474500Y-72077135D01*
X139695499Y-72077135D01*
X139695499Y-71227128D01*
X139689091Y-71167517D01*
X139649571Y-71061559D01*
X139638797Y-71032671D01*
X139638793Y-71032664D01*
X139552547Y-70917455D01*
X139552544Y-70917452D01*
X139437335Y-70831206D01*
X139437328Y-70831202D01*
X139302482Y-70780908D01*
X139302483Y-70780908D01*
X139242883Y-70774501D01*
X139242881Y-70774500D01*
X139242873Y-70774500D01*
X139242864Y-70774500D01*
X135647129Y-70774500D01*
X135647123Y-70774501D01*
X135587516Y-70780908D01*
X135452671Y-70831202D01*
X135452664Y-70831206D01*
X135337455Y-70917452D01*
X135337452Y-70917455D01*
X135251206Y-71032664D01*
X135251202Y-71032671D01*
X135200908Y-71167517D01*
X135194501Y-71227116D01*
X135194501Y-71227123D01*
X135194500Y-71227135D01*
X135194500Y-74822870D01*
X135194501Y-74822876D01*
X135200908Y-74882483D01*
X135251202Y-75017328D01*
X135251206Y-75017335D01*
X135337452Y-75132544D01*
X135337455Y-75132547D01*
X135452664Y-75218793D01*
X135452673Y-75218798D01*
X135501506Y-75237011D01*
X135557440Y-75278881D01*
X135581858Y-75344345D01*
X135567007Y-75412618D01*
X135517603Y-75462024D01*
X135451598Y-75477018D01*
X135413625Y-75475001D01*
X135413579Y-75475000D01*
X134695000Y-75475000D01*
X134695000Y-77225000D01*
X134195000Y-77225000D01*
X134195000Y-75475000D01*
X133476423Y-75475000D01*
X133476411Y-75475001D01*
X133423808Y-75477794D01*
X133194012Y-75522237D01*
X132975024Y-75604879D01*
X132773158Y-75723339D01*
X132773151Y-75723344D01*
X132594213Y-75874211D01*
X132594211Y-75874213D01*
X132443344Y-76053151D01*
X132443339Y-76053158D01*
X132324879Y-76255024D01*
X132242237Y-76474012D01*
X132197794Y-76703808D01*
X132197794Y-76703809D01*
X132195001Y-76756382D01*
X132195000Y-76756421D01*
X123233300Y-76756421D01*
X123233300Y-71960803D01*
X129445000Y-71960803D01*
X129445000Y-72775000D01*
X130945000Y-72775000D01*
X130945000Y-73275000D01*
X129445001Y-73275000D01*
X129445001Y-74089197D01*
X129455400Y-74221332D01*
X129510377Y-74439519D01*
X129603428Y-74644374D01*
X129603431Y-74644380D01*
X129731559Y-74829323D01*
X129731569Y-74829335D01*
X129890664Y-74988430D01*
X129890676Y-74988440D01*
X130075619Y-75116568D01*
X130075625Y-75116571D01*
X130280480Y-75209622D01*
X130498667Y-75264599D01*
X130630810Y-75274999D01*
X131194999Y-75274999D01*
X131195000Y-75274998D01*
X131195000Y-74458012D01*
X131252007Y-74490925D01*
X131379174Y-74525000D01*
X131510826Y-74525000D01*
X131637993Y-74490925D01*
X131695000Y-74458012D01*
X131695000Y-75274999D01*
X132259182Y-75274999D01*
X132259197Y-75274998D01*
X132391332Y-75264599D01*
X132609519Y-75209622D01*
X132814374Y-75116571D01*
X132814380Y-75116568D01*
X132999323Y-74988440D01*
X132999335Y-74988430D01*
X133158430Y-74829335D01*
X133158440Y-74829323D01*
X133286568Y-74644380D01*
X133286571Y-74644374D01*
X133379622Y-74439519D01*
X133434599Y-74221332D01*
X133444999Y-74089196D01*
X133445000Y-74089184D01*
X133445000Y-73275000D01*
X131945000Y-73275000D01*
X131945000Y-72775000D01*
X133444999Y-72775000D01*
X133444999Y-71960817D01*
X133444998Y-71960802D01*
X133434599Y-71828667D01*
X133379622Y-71610480D01*
X133286571Y-71405625D01*
X133286568Y-71405619D01*
X133158440Y-71220676D01*
X133158430Y-71220664D01*
X132999335Y-71061569D01*
X132999323Y-71061559D01*
X132814380Y-70933431D01*
X132814374Y-70933428D01*
X132609519Y-70840377D01*
X132391332Y-70785400D01*
X132259196Y-70775000D01*
X131695000Y-70775000D01*
X131695000Y-71591988D01*
X131637993Y-71559075D01*
X131510826Y-71525000D01*
X131379174Y-71525000D01*
X131252007Y-71559075D01*
X131195000Y-71591988D01*
X131195000Y-70775000D01*
X130630817Y-70775000D01*
X130630802Y-70775001D01*
X130498667Y-70785400D01*
X130280480Y-70840377D01*
X130075625Y-70933428D01*
X130075619Y-70933431D01*
X129890676Y-71061559D01*
X129890664Y-71061569D01*
X129731569Y-71220664D01*
X129731559Y-71220676D01*
X129603431Y-71405619D01*
X129603428Y-71405625D01*
X129510377Y-71610480D01*
X129455400Y-71828667D01*
X129445000Y-71960803D01*
X123233300Y-71960803D01*
X123233300Y-66674999D01*
X136589357Y-66674999D01*
X136589357Y-66675000D01*
X136609884Y-66896535D01*
X136609885Y-66896537D01*
X136670769Y-67110523D01*
X136670775Y-67110538D01*
X136769938Y-67309683D01*
X136769943Y-67309691D01*
X136904020Y-67487238D01*
X137068437Y-67637123D01*
X137068439Y-67637125D01*
X137257595Y-67754245D01*
X137257596Y-67754245D01*
X137257599Y-67754247D01*
X137465060Y-67834618D01*
X137683757Y-67875500D01*
X137683759Y-67875500D01*
X137906241Y-67875500D01*
X137906243Y-67875500D01*
X138124940Y-67834618D01*
X138332401Y-67754247D01*
X138521562Y-67637124D01*
X138685981Y-67487236D01*
X138820058Y-67309689D01*
X138919229Y-67110528D01*
X138980115Y-66896536D01*
X139000643Y-66675000D01*
X139000643Y-66674999D01*
X144209357Y-66674999D01*
X144209357Y-66675000D01*
X144229884Y-66896535D01*
X144229885Y-66896537D01*
X144290769Y-67110523D01*
X144290775Y-67110538D01*
X144389938Y-67309683D01*
X144389943Y-67309691D01*
X144524020Y-67487238D01*
X144688437Y-67637123D01*
X144688439Y-67637125D01*
X144877595Y-67754245D01*
X144877596Y-67754245D01*
X144877599Y-67754247D01*
X145085060Y-67834618D01*
X145303757Y-67875500D01*
X145303759Y-67875500D01*
X145526241Y-67875500D01*
X145526243Y-67875500D01*
X145744940Y-67834618D01*
X145952401Y-67754247D01*
X146141562Y-67637124D01*
X146305981Y-67487236D01*
X146440058Y-67309689D01*
X146539229Y-67110528D01*
X146600115Y-66896536D01*
X146620643Y-66675000D01*
X146600115Y-66453464D01*
X146539229Y-66239472D01*
X146539224Y-66239461D01*
X146440061Y-66040316D01*
X146440056Y-66040308D01*
X146305979Y-65862761D01*
X146141562Y-65712876D01*
X146141560Y-65712874D01*
X145952404Y-65595754D01*
X145952398Y-65595752D01*
X145744940Y-65515382D01*
X145526243Y-65474500D01*
X145303757Y-65474500D01*
X145085060Y-65515382D01*
X144953864Y-65566207D01*
X144877601Y-65595752D01*
X144877595Y-65595754D01*
X144688439Y-65712874D01*
X144688437Y-65712876D01*
X144524020Y-65862761D01*
X144389943Y-66040308D01*
X144389938Y-66040316D01*
X144290775Y-66239461D01*
X144290769Y-66239476D01*
X144229885Y-66453462D01*
X144229884Y-66453464D01*
X144209357Y-66674999D01*
X139000643Y-66674999D01*
X138980115Y-66453464D01*
X138919229Y-66239472D01*
X138919224Y-66239461D01*
X138820061Y-66040316D01*
X138820056Y-66040308D01*
X138685979Y-65862761D01*
X138521562Y-65712876D01*
X138521560Y-65712874D01*
X138332404Y-65595754D01*
X138332398Y-65595752D01*
X138124940Y-65515382D01*
X137906243Y-65474500D01*
X137683757Y-65474500D01*
X137465060Y-65515382D01*
X137333864Y-65566207D01*
X137257601Y-65595752D01*
X137257595Y-65595754D01*
X137068439Y-65712874D01*
X137068437Y-65712876D01*
X136904020Y-65862761D01*
X136769943Y-66040308D01*
X136769938Y-66040316D01*
X136670775Y-66239461D01*
X136670769Y-66239476D01*
X136609885Y-66453462D01*
X136609884Y-66453464D01*
X136589357Y-66674999D01*
X123233300Y-66674999D01*
X123233300Y-63028146D01*
X124912000Y-63028146D01*
X124912000Y-63351853D01*
X124947778Y-63577746D01*
X124947778Y-63577749D01*
X125018450Y-63795255D01*
X125018452Y-63795258D01*
X125122283Y-63999038D01*
X125256714Y-64184066D01*
X125418434Y-64345786D01*
X125603462Y-64480217D01*
X125735599Y-64547544D01*
X125807244Y-64584049D01*
X126024751Y-64654721D01*
X126024752Y-64654721D01*
X126024755Y-64654722D01*
X126250646Y-64690500D01*
X126250647Y-64690500D01*
X126479353Y-64690500D01*
X126479354Y-64690500D01*
X126705245Y-64654722D01*
X126705248Y-64654721D01*
X126705249Y-64654721D01*
X126922755Y-64584049D01*
X126922755Y-64584048D01*
X126922758Y-64584048D01*
X127126538Y-64480217D01*
X127311566Y-64345786D01*
X127473286Y-64184066D01*
X127534992Y-64099134D01*
X127590319Y-64056470D01*
X127659932Y-64050491D01*
X127721727Y-64083096D01*
X127735626Y-64099135D01*
X127797097Y-64183741D01*
X127797097Y-64183742D01*
X127958757Y-64345402D01*
X128143723Y-64479788D01*
X128347429Y-64583582D01*
X128564871Y-64654234D01*
X128655000Y-64668509D01*
X128655000Y-63680747D01*
X128692708Y-63702518D01*
X128832591Y-63740000D01*
X128977409Y-63740000D01*
X129117292Y-63702518D01*
X129155000Y-63680747D01*
X129155000Y-64668508D01*
X129245128Y-64654234D01*
X129462570Y-64583582D01*
X129666276Y-64479788D01*
X129849059Y-64346988D01*
X129914865Y-64323508D01*
X129982919Y-64339333D01*
X130031614Y-64389439D01*
X130038127Y-64403974D01*
X130048701Y-64432326D01*
X130048706Y-64432335D01*
X130134952Y-64547544D01*
X130134955Y-64547547D01*
X130250164Y-64633793D01*
X130250171Y-64633797D01*
X130385017Y-64684091D01*
X130385016Y-64684091D01*
X130391944Y-64684835D01*
X130444627Y-64690500D01*
X132445372Y-64690499D01*
X132504983Y-64684091D01*
X132639831Y-64633796D01*
X132755046Y-64547546D01*
X132841296Y-64432331D01*
X132891591Y-64297483D01*
X132898000Y-64237873D01*
X132897999Y-62142128D01*
X132891591Y-62082517D01*
X132881841Y-62056377D01*
X132841297Y-61947671D01*
X132841293Y-61947664D01*
X132755047Y-61832455D01*
X132755044Y-61832452D01*
X132639835Y-61746206D01*
X132639828Y-61746202D01*
X132504982Y-61695908D01*
X132504983Y-61695908D01*
X132445383Y-61689501D01*
X132445381Y-61689500D01*
X132445373Y-61689500D01*
X132445364Y-61689500D01*
X130444629Y-61689500D01*
X130444623Y-61689501D01*
X130385016Y-61695908D01*
X130250171Y-61746202D01*
X130250164Y-61746206D01*
X130134955Y-61832452D01*
X130134952Y-61832455D01*
X130048706Y-61947664D01*
X130048702Y-61947671D01*
X130038127Y-61976026D01*
X129996256Y-62031960D01*
X129930791Y-62056377D01*
X129862518Y-62041525D01*
X129849060Y-62033011D01*
X129666279Y-61900213D01*
X129462568Y-61796417D01*
X129245124Y-61725765D01*
X129155000Y-61711490D01*
X129155000Y-62699252D01*
X129117292Y-62677482D01*
X128977409Y-62640000D01*
X128832591Y-62640000D01*
X128692708Y-62677482D01*
X128655000Y-62699252D01*
X128655000Y-61711490D01*
X128654999Y-61711490D01*
X128564875Y-61725765D01*
X128347431Y-61796417D01*
X128143723Y-61900211D01*
X127958757Y-62034597D01*
X127797097Y-62196257D01*
X127735627Y-62280864D01*
X127680297Y-62323529D01*
X127610684Y-62329508D01*
X127548889Y-62296902D01*
X127534991Y-62280864D01*
X127473286Y-62195934D01*
X127311566Y-62034214D01*
X127126538Y-61899783D01*
X126922755Y-61795950D01*
X126705248Y-61725278D01*
X126519812Y-61695908D01*
X126479354Y-61689500D01*
X126250646Y-61689500D01*
X126210188Y-61695908D01*
X126024753Y-61725278D01*
X126024750Y-61725278D01*
X125807244Y-61795950D01*
X125603461Y-61899783D01*
X125537550Y-61947671D01*
X125418434Y-62034214D01*
X125418432Y-62034216D01*
X125418431Y-62034216D01*
X125256716Y-62195931D01*
X125256716Y-62195932D01*
X125256714Y-62195934D01*
X125231968Y-62229994D01*
X125122283Y-62380961D01*
X125018450Y-62584744D01*
X124947778Y-62802250D01*
X124947778Y-62802253D01*
X124912000Y-63028146D01*
X123233300Y-63028146D01*
X123233300Y-61232135D01*
X137774500Y-61232135D01*
X137774500Y-63227870D01*
X137774501Y-63227876D01*
X137780908Y-63287483D01*
X137831202Y-63422328D01*
X137831206Y-63422335D01*
X137917452Y-63537544D01*
X137917455Y-63537547D01*
X138032664Y-63623793D01*
X138032671Y-63623797D01*
X138167517Y-63674091D01*
X138167516Y-63674091D01*
X138174444Y-63674835D01*
X138227127Y-63680500D01*
X140222872Y-63680499D01*
X140282483Y-63674091D01*
X140417331Y-63623796D01*
X140532546Y-63537546D01*
X140618796Y-63422331D01*
X140621979Y-63413795D01*
X140663847Y-63357860D01*
X140729310Y-63333439D01*
X140797584Y-63348287D01*
X140814325Y-63359270D01*
X140928924Y-63448466D01*
X140928930Y-63448470D01*
X140928933Y-63448472D01*
X141140344Y-63562882D01*
X141140347Y-63562883D01*
X141367699Y-63640933D01*
X141367701Y-63640933D01*
X141367703Y-63640934D01*
X141604808Y-63680500D01*
X141604809Y-63680500D01*
X141845191Y-63680500D01*
X141845192Y-63680500D01*
X142082297Y-63640934D01*
X142309656Y-63562882D01*
X142521067Y-63448472D01*
X142710764Y-63300825D01*
X142873571Y-63123969D01*
X142873577Y-63123959D01*
X142876717Y-63119926D01*
X142878549Y-63121352D01*
X142924262Y-63082287D01*
X142993487Y-63072817D01*
X143056842Y-63102276D01*
X143072597Y-63120459D01*
X143073283Y-63119926D01*
X143076427Y-63123966D01*
X143076429Y-63123969D01*
X143239236Y-63300825D01*
X143239239Y-63300827D01*
X143239242Y-63300830D01*
X143428924Y-63448466D01*
X143428930Y-63448470D01*
X143428933Y-63448472D01*
X143640344Y-63562882D01*
X143640347Y-63562883D01*
X143867699Y-63640933D01*
X143867701Y-63640933D01*
X143867703Y-63640934D01*
X144104808Y-63680500D01*
X144104809Y-63680500D01*
X144345191Y-63680500D01*
X144345192Y-63680500D01*
X144582297Y-63640934D01*
X144809656Y-63562882D01*
X145021067Y-63448472D01*
X145210764Y-63300825D01*
X145373571Y-63123969D01*
X145505049Y-62922728D01*
X145601610Y-62702591D01*
X145660620Y-62469563D01*
X145669442Y-62363090D01*
X145680471Y-62230005D01*
X145680471Y-62229994D01*
X145664248Y-62034216D01*
X145660620Y-61990437D01*
X145601610Y-61757409D01*
X145505049Y-61537272D01*
X145474999Y-61491278D01*
X145373572Y-61336033D01*
X145373571Y-61336031D01*
X145210764Y-61159175D01*
X145210759Y-61159171D01*
X145210757Y-61159169D01*
X145021075Y-61011533D01*
X145021069Y-61011529D01*
X144809657Y-60897118D01*
X144809652Y-60897116D01*
X144582300Y-60819066D01*
X144383593Y-60785908D01*
X144345192Y-60779500D01*
X144104808Y-60779500D01*
X144066407Y-60785908D01*
X143867699Y-60819066D01*
X143640347Y-60897116D01*
X143640342Y-60897118D01*
X143428930Y-61011529D01*
X143428924Y-61011533D01*
X143239242Y-61159169D01*
X143239239Y-61159172D01*
X143076430Y-61336029D01*
X143073283Y-61340074D01*
X143071464Y-61338658D01*
X143025659Y-61377748D01*
X142956427Y-61387169D01*
X142893093Y-61357666D01*
X142877392Y-61339547D01*
X142876717Y-61340074D01*
X142873569Y-61336029D01*
X142710764Y-61159175D01*
X142710759Y-61159171D01*
X142710757Y-61159169D01*
X142521075Y-61011533D01*
X142521069Y-61011529D01*
X142309657Y-60897118D01*
X142309652Y-60897116D01*
X142082300Y-60819066D01*
X141883593Y-60785908D01*
X141845192Y-60779500D01*
X141604808Y-60779500D01*
X141566407Y-60785908D01*
X141367699Y-60819066D01*
X141140347Y-60897116D01*
X141140342Y-60897118D01*
X140928931Y-61011529D01*
X140814325Y-61100730D01*
X140749331Y-61126372D01*
X140680791Y-61112805D01*
X140630466Y-61064337D01*
X140621980Y-61046205D01*
X140618798Y-61037672D01*
X140618793Y-61037664D01*
X140532547Y-60922455D01*
X140532544Y-60922452D01*
X140417335Y-60836206D01*
X140417328Y-60836202D01*
X140282482Y-60785908D01*
X140282483Y-60785908D01*
X140222883Y-60779501D01*
X140222881Y-60779500D01*
X140222873Y-60779500D01*
X140222864Y-60779500D01*
X138227129Y-60779500D01*
X138227123Y-60779501D01*
X138167516Y-60785908D01*
X138032671Y-60836202D01*
X138032664Y-60836206D01*
X137917455Y-60922452D01*
X137917452Y-60922455D01*
X137831206Y-61037664D01*
X137831202Y-61037671D01*
X137780908Y-61172517D01*
X137774501Y-61232116D01*
X137774500Y-61232135D01*
X123233300Y-61232135D01*
X123233300Y-58419998D01*
X125079532Y-58419998D01*
X125079532Y-58420001D01*
X125099364Y-58646686D01*
X125099366Y-58646697D01*
X125158258Y-58866488D01*
X125158261Y-58866497D01*
X125254431Y-59072732D01*
X125254432Y-59072734D01*
X125384954Y-59259141D01*
X125545858Y-59420045D01*
X125545861Y-59420047D01*
X125732266Y-59550568D01*
X125938504Y-59646739D01*
X126158308Y-59705635D01*
X126320230Y-59719801D01*
X126384998Y-59725468D01*
X126385000Y-59725468D01*
X126385002Y-59725468D01*
X126441673Y-59720509D01*
X126611692Y-59705635D01*
X126831496Y-59646739D01*
X127037734Y-59550568D01*
X127224139Y-59420047D01*
X127385047Y-59259139D01*
X127515568Y-59072734D01*
X127522893Y-59057024D01*
X127569064Y-59004586D01*
X127636257Y-58985433D01*
X127703138Y-59005648D01*
X127747657Y-59057024D01*
X127754864Y-59072480D01*
X127805974Y-59145472D01*
X128485000Y-58466446D01*
X128485000Y-58472661D01*
X128512259Y-58574394D01*
X128564920Y-58665606D01*
X128639394Y-58740080D01*
X128730606Y-58792741D01*
X128832339Y-58820000D01*
X128838553Y-58820000D01*
X128159526Y-59499025D01*
X128232513Y-59550132D01*
X128232521Y-59550136D01*
X128438668Y-59646264D01*
X128438682Y-59646269D01*
X128658389Y-59705139D01*
X128658400Y-59705141D01*
X128884998Y-59724966D01*
X128885002Y-59724966D01*
X129111599Y-59705141D01*
X129111610Y-59705139D01*
X129331317Y-59646269D01*
X129331331Y-59646264D01*
X129537478Y-59550136D01*
X129610471Y-59499024D01*
X128931447Y-58820000D01*
X128937661Y-58820000D01*
X129039394Y-58792741D01*
X129130606Y-58740080D01*
X129205080Y-58665606D01*
X129257741Y-58574394D01*
X129285000Y-58472661D01*
X129285000Y-58466447D01*
X129964024Y-59145471D01*
X130015136Y-59072478D01*
X130062342Y-58971245D01*
X130108514Y-58918805D01*
X130175707Y-58899653D01*
X130242588Y-58919868D01*
X130287106Y-58971244D01*
X130334431Y-59072732D01*
X130334432Y-59072734D01*
X130464954Y-59259141D01*
X130625858Y-59420045D01*
X130625861Y-59420047D01*
X130812266Y-59550568D01*
X131018504Y-59646739D01*
X131238308Y-59705635D01*
X131400230Y-59719801D01*
X131464998Y-59725468D01*
X131465000Y-59725468D01*
X131465002Y-59725468D01*
X131521673Y-59720509D01*
X131691692Y-59705635D01*
X131911496Y-59646739D01*
X132117734Y-59550568D01*
X132304139Y-59420047D01*
X132465047Y-59259139D01*
X132595568Y-59072734D01*
X132602893Y-59057024D01*
X132649064Y-59004586D01*
X132716257Y-58985433D01*
X132783138Y-59005648D01*
X132827657Y-59057024D01*
X132834864Y-59072480D01*
X132885974Y-59145472D01*
X133565000Y-58466446D01*
X133565000Y-58472661D01*
X133592259Y-58574394D01*
X133644920Y-58665606D01*
X133719394Y-58740080D01*
X133810606Y-58792741D01*
X133912339Y-58820000D01*
X133918553Y-58820000D01*
X133239526Y-59499025D01*
X133312513Y-59550132D01*
X133312521Y-59550136D01*
X133518668Y-59646264D01*
X133518682Y-59646269D01*
X133738389Y-59705139D01*
X133738400Y-59705141D01*
X133964998Y-59724966D01*
X133965002Y-59724966D01*
X134191599Y-59705141D01*
X134191610Y-59705139D01*
X134411317Y-59646269D01*
X134411331Y-59646264D01*
X134617478Y-59550136D01*
X134690471Y-59499024D01*
X134011447Y-58820000D01*
X134017661Y-58820000D01*
X134119394Y-58792741D01*
X134210606Y-58740080D01*
X134285080Y-58665606D01*
X134337741Y-58574394D01*
X134365000Y-58472661D01*
X134365000Y-58466447D01*
X135044024Y-59145471D01*
X135095136Y-59072478D01*
X135191264Y-58866331D01*
X135191269Y-58866317D01*
X135250139Y-58646610D01*
X135250141Y-58646599D01*
X135269966Y-58420002D01*
X135269966Y-58419997D01*
X135250141Y-58193400D01*
X135250139Y-58193389D01*
X135191269Y-57973682D01*
X135191264Y-57973668D01*
X135095136Y-57767521D01*
X135095132Y-57767513D01*
X135044025Y-57694526D01*
X134365000Y-58373551D01*
X134365000Y-58367339D01*
X134337741Y-58265606D01*
X134285080Y-58174394D01*
X134210606Y-58099920D01*
X134119394Y-58047259D01*
X134017661Y-58020000D01*
X134011448Y-58020000D01*
X134690472Y-57340974D01*
X134617478Y-57289863D01*
X134411331Y-57193735D01*
X134411317Y-57193730D01*
X134191610Y-57134860D01*
X134191599Y-57134858D01*
X133965002Y-57115034D01*
X133964998Y-57115034D01*
X133738400Y-57134858D01*
X133738389Y-57134860D01*
X133518682Y-57193730D01*
X133518673Y-57193734D01*
X133312516Y-57289866D01*
X133312512Y-57289868D01*
X133239526Y-57340973D01*
X133239526Y-57340974D01*
X133918553Y-58020000D01*
X133912339Y-58020000D01*
X133810606Y-58047259D01*
X133719394Y-58099920D01*
X133644920Y-58174394D01*
X133592259Y-58265606D01*
X133565000Y-58367339D01*
X133565000Y-58373552D01*
X132885974Y-57694526D01*
X132885973Y-57694526D01*
X132834868Y-57767512D01*
X132834867Y-57767514D01*
X132827656Y-57782979D01*
X132781482Y-57835417D01*
X132714288Y-57854567D01*
X132647407Y-57834350D01*
X132602893Y-57782976D01*
X132595568Y-57767266D01*
X132465047Y-57580861D01*
X132465045Y-57580858D01*
X132304141Y-57419954D01*
X132117734Y-57289432D01*
X132117732Y-57289431D01*
X131911497Y-57193261D01*
X131911488Y-57193258D01*
X131691697Y-57134366D01*
X131691693Y-57134365D01*
X131691692Y-57134365D01*
X131691691Y-57134364D01*
X131691686Y-57134364D01*
X131465002Y-57114532D01*
X131464998Y-57114532D01*
X131238313Y-57134364D01*
X131238302Y-57134366D01*
X131018511Y-57193258D01*
X131018502Y-57193261D01*
X130812267Y-57289431D01*
X130812265Y-57289432D01*
X130625858Y-57419954D01*
X130464954Y-57580858D01*
X130334433Y-57767264D01*
X130287106Y-57868756D01*
X130240933Y-57921195D01*
X130173739Y-57940346D01*
X130106858Y-57920130D01*
X130062342Y-57868754D01*
X130015136Y-57767521D01*
X130015132Y-57767513D01*
X129964025Y-57694526D01*
X129285000Y-58373551D01*
X129285000Y-58367339D01*
X129257741Y-58265606D01*
X129205080Y-58174394D01*
X129130606Y-58099920D01*
X129039394Y-58047259D01*
X128937661Y-58020000D01*
X128931448Y-58020000D01*
X129610472Y-57340974D01*
X129537478Y-57289863D01*
X129331331Y-57193735D01*
X129331317Y-57193730D01*
X129111610Y-57134860D01*
X129111599Y-57134858D01*
X128885002Y-57115034D01*
X128884998Y-57115034D01*
X128658400Y-57134858D01*
X128658389Y-57134860D01*
X128438682Y-57193730D01*
X128438673Y-57193734D01*
X128232516Y-57289866D01*
X128232512Y-57289868D01*
X128159526Y-57340973D01*
X128159526Y-57340974D01*
X128838553Y-58020000D01*
X128832339Y-58020000D01*
X128730606Y-58047259D01*
X128639394Y-58099920D01*
X128564920Y-58174394D01*
X128512259Y-58265606D01*
X128485000Y-58367339D01*
X128485000Y-58373552D01*
X127805974Y-57694526D01*
X127805973Y-57694526D01*
X127754868Y-57767512D01*
X127754867Y-57767514D01*
X127747656Y-57782979D01*
X127701482Y-57835417D01*
X127634288Y-57854567D01*
X127567407Y-57834350D01*
X127522893Y-57782976D01*
X127515568Y-57767266D01*
X127385047Y-57580861D01*
X127385045Y-57580858D01*
X127224141Y-57419954D01*
X127037734Y-57289432D01*
X127037732Y-57289431D01*
X126831497Y-57193261D01*
X126831488Y-57193258D01*
X126611697Y-57134366D01*
X126611693Y-57134365D01*
X126611692Y-57134365D01*
X126611691Y-57134364D01*
X126611686Y-57134364D01*
X126385002Y-57114532D01*
X126384998Y-57114532D01*
X126158313Y-57134364D01*
X126158302Y-57134366D01*
X125938511Y-57193258D01*
X125938502Y-57193261D01*
X125732267Y-57289431D01*
X125732265Y-57289432D01*
X125545858Y-57419954D01*
X125384954Y-57580858D01*
X125254432Y-57767265D01*
X125254431Y-57767267D01*
X125158261Y-57973502D01*
X125158258Y-57973511D01*
X125099366Y-58193302D01*
X125099364Y-58193313D01*
X125079532Y-58419998D01*
X123233300Y-58419998D01*
X123233300Y-51807135D01*
X128824500Y-51807135D01*
X128824500Y-53602870D01*
X128824501Y-53602876D01*
X128830908Y-53662483D01*
X128881202Y-53797328D01*
X128881206Y-53797335D01*
X128967452Y-53912544D01*
X128967455Y-53912547D01*
X129082664Y-53998793D01*
X129082671Y-53998797D01*
X129217517Y-54049091D01*
X129217516Y-54049091D01*
X129224444Y-54049835D01*
X129277127Y-54055500D01*
X131072872Y-54055499D01*
X131132483Y-54049091D01*
X131267331Y-53998796D01*
X131382546Y-53912546D01*
X131468796Y-53797331D01*
X131517810Y-53665916D01*
X131559681Y-53609984D01*
X131625145Y-53585566D01*
X131693418Y-53600417D01*
X131721673Y-53621569D01*
X131843599Y-53743495D01*
X131923638Y-53799539D01*
X132037165Y-53879032D01*
X132037167Y-53879033D01*
X132037170Y-53879035D01*
X132251337Y-53978903D01*
X132479592Y-54040063D01*
X132656034Y-54055500D01*
X132714999Y-54060659D01*
X132715000Y-54060659D01*
X132715001Y-54060659D01*
X132773966Y-54055500D01*
X132950408Y-54040063D01*
X133178663Y-53978903D01*
X133392830Y-53879035D01*
X133586401Y-53743495D01*
X133753495Y-53576401D01*
X133883425Y-53390842D01*
X133938002Y-53347217D01*
X134007500Y-53340023D01*
X134069855Y-53371546D01*
X134086575Y-53390842D01*
X134216500Y-53576395D01*
X134216505Y-53576401D01*
X134383599Y-53743495D01*
X134463638Y-53799539D01*
X134577165Y-53879032D01*
X134577167Y-53879033D01*
X134577170Y-53879035D01*
X134791337Y-53978903D01*
X135019592Y-54040063D01*
X135196034Y-54055500D01*
X135254999Y-54060659D01*
X135255000Y-54060659D01*
X135255001Y-54060659D01*
X135313966Y-54055500D01*
X135490408Y-54040063D01*
X135718663Y-53978903D01*
X135932830Y-53879035D01*
X136126401Y-53743495D01*
X136172741Y-53697155D01*
X138335000Y-53697155D01*
X138335000Y-54995000D01*
X139615936Y-54995000D01*
X139604207Y-55023316D01*
X139575000Y-55170147D01*
X139575000Y-55319853D01*
X139604207Y-55466684D01*
X139615936Y-55495000D01*
X138335000Y-55495000D01*
X138335000Y-56792844D01*
X138341401Y-56852372D01*
X138341403Y-56852379D01*
X138391645Y-56987086D01*
X138391649Y-56987093D01*
X138477809Y-57102187D01*
X138477812Y-57102190D01*
X138592906Y-57188350D01*
X138592913Y-57188354D01*
X138727620Y-57238596D01*
X138727627Y-57238598D01*
X138787155Y-57244999D01*
X138787172Y-57245000D01*
X140085000Y-57245000D01*
X140085000Y-55964064D01*
X140113316Y-55975793D01*
X140260147Y-56005000D01*
X140409853Y-56005000D01*
X140556684Y-55975793D01*
X140585000Y-55964064D01*
X140585000Y-57245000D01*
X141882828Y-57245000D01*
X141882844Y-57244999D01*
X141942372Y-57238598D01*
X141942379Y-57238596D01*
X142077086Y-57188354D01*
X142077093Y-57188350D01*
X142192187Y-57102190D01*
X142192190Y-57102187D01*
X142278350Y-56987093D01*
X142278354Y-56987086D01*
X142328596Y-56852379D01*
X142328598Y-56852372D01*
X142334999Y-56792844D01*
X142335000Y-56792827D01*
X142335000Y-55495000D01*
X141054064Y-55495000D01*
X141065793Y-55466684D01*
X141095000Y-55319853D01*
X141095000Y-55244998D01*
X143409390Y-55244998D01*
X143409390Y-55245001D01*
X143429804Y-55530433D01*
X143490628Y-55810037D01*
X143490630Y-55810043D01*
X143490631Y-55810046D01*
X143563345Y-56005000D01*
X143590635Y-56078166D01*
X143727770Y-56329309D01*
X143727775Y-56329317D01*
X143899254Y-56558387D01*
X143899270Y-56558405D01*
X144101594Y-56760729D01*
X144101612Y-56760745D01*
X144330682Y-56932224D01*
X144330690Y-56932229D01*
X144581833Y-57069364D01*
X144581832Y-57069364D01*
X144581836Y-57069365D01*
X144581839Y-57069367D01*
X144849954Y-57169369D01*
X144849960Y-57169370D01*
X144849962Y-57169371D01*
X145129566Y-57230195D01*
X145129568Y-57230195D01*
X145129572Y-57230196D01*
X145383220Y-57248337D01*
X145414999Y-57250610D01*
X145415000Y-57250610D01*
X145415001Y-57250610D01*
X145443595Y-57248564D01*
X145700428Y-57230196D01*
X145980046Y-57169369D01*
X146248161Y-57069367D01*
X146499315Y-56932226D01*
X146728395Y-56760739D01*
X146930739Y-56558395D01*
X147102226Y-56329315D01*
X147239367Y-56078161D01*
X147339369Y-55810046D01*
X147400196Y-55530428D01*
X147420610Y-55245000D01*
X147400196Y-54959572D01*
X147348046Y-54719843D01*
X147339371Y-54679962D01*
X147339370Y-54679960D01*
X147339369Y-54679954D01*
X147239367Y-54411839D01*
X147165967Y-54277418D01*
X147102229Y-54160690D01*
X147102224Y-54160682D01*
X146930745Y-53931612D01*
X146930729Y-53931594D01*
X146728405Y-53729270D01*
X146728387Y-53729254D01*
X146499317Y-53557775D01*
X146499309Y-53557770D01*
X146248166Y-53420635D01*
X146248167Y-53420635D01*
X146140915Y-53380632D01*
X145980046Y-53320631D01*
X145980043Y-53320630D01*
X145980037Y-53320628D01*
X145700433Y-53259804D01*
X145415001Y-53239390D01*
X145414999Y-53239390D01*
X145129566Y-53259804D01*
X144849962Y-53320628D01*
X144581833Y-53420635D01*
X144330690Y-53557770D01*
X144330682Y-53557775D01*
X144101612Y-53729254D01*
X144101594Y-53729270D01*
X143899270Y-53931594D01*
X143899254Y-53931612D01*
X143727775Y-54160682D01*
X143727770Y-54160690D01*
X143590635Y-54411833D01*
X143490628Y-54679962D01*
X143429804Y-54959566D01*
X143409390Y-55244998D01*
X141095000Y-55244998D01*
X141095000Y-55170147D01*
X141065793Y-55023316D01*
X141054064Y-54995000D01*
X142335000Y-54995000D01*
X142335000Y-53697172D01*
X142334999Y-53697155D01*
X142328598Y-53637627D01*
X142328596Y-53637620D01*
X142278354Y-53502913D01*
X142278350Y-53502906D01*
X142192190Y-53387812D01*
X142192187Y-53387809D01*
X142077093Y-53301649D01*
X142077086Y-53301645D01*
X141942379Y-53251403D01*
X141942372Y-53251401D01*
X141882844Y-53245000D01*
X140585000Y-53245000D01*
X140585000Y-54525935D01*
X140556684Y-54514207D01*
X140409853Y-54485000D01*
X140260147Y-54485000D01*
X140113316Y-54514207D01*
X140085000Y-54525935D01*
X140085000Y-53245000D01*
X138787155Y-53245000D01*
X138727627Y-53251401D01*
X138727620Y-53251403D01*
X138592913Y-53301645D01*
X138592906Y-53301649D01*
X138477812Y-53387809D01*
X138477809Y-53387812D01*
X138391649Y-53502906D01*
X138391645Y-53502913D01*
X138341403Y-53637620D01*
X138341401Y-53637627D01*
X138335000Y-53697155D01*
X136172741Y-53697155D01*
X136293495Y-53576401D01*
X136429035Y-53382830D01*
X136528903Y-53168663D01*
X136590063Y-52940408D01*
X136610659Y-52705000D01*
X136590063Y-52469592D01*
X136528903Y-52241337D01*
X136429035Y-52027171D01*
X136423425Y-52019158D01*
X136293494Y-51833597D01*
X136126402Y-51666506D01*
X136126395Y-51666501D01*
X135932834Y-51530967D01*
X135932830Y-51530965D01*
X135932828Y-51530964D01*
X135718663Y-51431097D01*
X135718659Y-51431096D01*
X135718655Y-51431094D01*
X135490413Y-51369938D01*
X135490403Y-51369936D01*
X135255001Y-51349341D01*
X135254999Y-51349341D01*
X135019596Y-51369936D01*
X135019586Y-51369938D01*
X134791344Y-51431094D01*
X134791335Y-51431098D01*
X134577171Y-51530964D01*
X134577169Y-51530965D01*
X134383597Y-51666505D01*
X134216505Y-51833597D01*
X134086575Y-52019158D01*
X134031998Y-52062783D01*
X133962500Y-52069977D01*
X133900145Y-52038454D01*
X133883425Y-52019158D01*
X133753494Y-51833597D01*
X133586402Y-51666506D01*
X133586395Y-51666501D01*
X133392834Y-51530967D01*
X133392830Y-51530965D01*
X133392828Y-51530964D01*
X133178663Y-51431097D01*
X133178659Y-51431096D01*
X133178655Y-51431094D01*
X132950413Y-51369938D01*
X132950403Y-51369936D01*
X132715001Y-51349341D01*
X132714999Y-51349341D01*
X132479596Y-51369936D01*
X132479586Y-51369938D01*
X132251344Y-51431094D01*
X132251335Y-51431098D01*
X132037171Y-51530964D01*
X132037169Y-51530965D01*
X131843600Y-51666503D01*
X131721673Y-51788430D01*
X131660350Y-51821914D01*
X131590658Y-51816930D01*
X131534725Y-51775058D01*
X131517810Y-51744081D01*
X131468797Y-51612671D01*
X131468793Y-51612664D01*
X131382547Y-51497455D01*
X131382544Y-51497452D01*
X131267335Y-51411206D01*
X131267328Y-51411202D01*
X131132482Y-51360908D01*
X131132483Y-51360908D01*
X131072883Y-51354501D01*
X131072881Y-51354500D01*
X131072873Y-51354500D01*
X131072864Y-51354500D01*
X129277129Y-51354500D01*
X129277123Y-51354501D01*
X129217516Y-51360908D01*
X129082671Y-51411202D01*
X129082664Y-51411206D01*
X128967455Y-51497452D01*
X128967452Y-51497455D01*
X128881206Y-51612664D01*
X128881202Y-51612671D01*
X128830908Y-51747517D01*
X128824501Y-51807116D01*
X128824500Y-51807135D01*
X123233300Y-51807135D01*
X123233300Y-51068900D01*
X123252985Y-51001861D01*
X123305789Y-50956106D01*
X123357300Y-50944900D01*
X123408292Y-50944900D01*
X149761629Y-50944900D01*
X149828668Y-50964585D01*
G37*
%TD.AperFunction*%
%TA.AperFunction,Conductor*%
G36*
X152553739Y-90893385D02*
G01*
X152599494Y-90946189D01*
X152610700Y-90997700D01*
X152610700Y-96251100D01*
X152591015Y-96318139D01*
X152538211Y-96363894D01*
X152486700Y-96375100D01*
X151554737Y-96375100D01*
X151487698Y-96355415D01*
X151441943Y-96302611D01*
X151431999Y-96233453D01*
X151461024Y-96169897D01*
X151502331Y-96138718D01*
X151611582Y-96087774D01*
X151805153Y-95952234D01*
X151972247Y-95785140D01*
X152107787Y-95591569D01*
X152207655Y-95377402D01*
X152268815Y-95149147D01*
X152289411Y-94913739D01*
X152268815Y-94678331D01*
X152207655Y-94450076D01*
X152107787Y-94235910D01*
X152101818Y-94227386D01*
X151972248Y-94042339D01*
X151972247Y-94042338D01*
X151849931Y-93920022D01*
X151816448Y-93858702D01*
X151821432Y-93789010D01*
X151863303Y-93733076D01*
X151894281Y-93716161D01*
X152025838Y-93667093D01*
X152025845Y-93667089D01*
X152140939Y-93580929D01*
X152140942Y-93580926D01*
X152227102Y-93465832D01*
X152227106Y-93465825D01*
X152277348Y-93331118D01*
X152277350Y-93331111D01*
X152283751Y-93271583D01*
X152283752Y-93271566D01*
X152283752Y-92623739D01*
X151366764Y-92623739D01*
X151399677Y-92566732D01*
X151433752Y-92439565D01*
X151433752Y-92307913D01*
X151399677Y-92180746D01*
X151366764Y-92123739D01*
X152283752Y-92123739D01*
X152283752Y-91475911D01*
X152283751Y-91475894D01*
X152277350Y-91416366D01*
X152277348Y-91416359D01*
X152227106Y-91281652D01*
X152227102Y-91281645D01*
X152140942Y-91166551D01*
X152140939Y-91166548D01*
X152047990Y-91096966D01*
X152006119Y-91041032D01*
X152001135Y-90971341D01*
X152034621Y-90910018D01*
X152095944Y-90876534D01*
X152122301Y-90873700D01*
X152486700Y-90873700D01*
X152553739Y-90893385D01*
G37*
%TD.AperFunction*%
%TA.AperFunction,Conductor*%
G36*
X152553739Y-50964585D02*
G01*
X152599494Y-51017389D01*
X152610700Y-51068900D01*
X152610700Y-56322300D01*
X152591015Y-56389339D01*
X152538211Y-56435094D01*
X152486700Y-56446300D01*
X151547152Y-56446300D01*
X151480113Y-56426615D01*
X151434358Y-56373811D01*
X151424414Y-56304653D01*
X151453439Y-56241097D01*
X151494747Y-56209918D01*
X151667671Y-56129282D01*
X151861242Y-55993742D01*
X152028336Y-55826648D01*
X152163876Y-55633077D01*
X152263744Y-55418910D01*
X152324904Y-55190655D01*
X152345500Y-54955247D01*
X152324904Y-54719839D01*
X152263744Y-54491584D01*
X152163876Y-54277418D01*
X152028336Y-54083846D01*
X151906020Y-53961530D01*
X151872537Y-53900210D01*
X151877521Y-53830518D01*
X151919392Y-53774584D01*
X151950370Y-53757669D01*
X152081927Y-53708601D01*
X152081934Y-53708597D01*
X152197028Y-53622437D01*
X152197031Y-53622434D01*
X152283191Y-53507340D01*
X152283195Y-53507333D01*
X152333437Y-53372626D01*
X152333439Y-53372619D01*
X152339840Y-53313091D01*
X152339841Y-53313074D01*
X152339841Y-52665247D01*
X151422853Y-52665247D01*
X151455766Y-52608240D01*
X151489841Y-52481073D01*
X151489841Y-52349421D01*
X151455766Y-52222254D01*
X151422853Y-52165247D01*
X152339841Y-52165247D01*
X152339841Y-51517419D01*
X152339840Y-51517402D01*
X152333439Y-51457874D01*
X152333437Y-51457867D01*
X152283195Y-51323160D01*
X152283191Y-51323153D01*
X152197031Y-51208059D01*
X152197028Y-51208056D01*
X152143742Y-51168166D01*
X152101871Y-51112233D01*
X152096887Y-51042541D01*
X152130373Y-50981218D01*
X152191696Y-50947734D01*
X152218053Y-50944900D01*
X152486700Y-50944900D01*
X152553739Y-50964585D01*
G37*
%TD.AperFunction*%
%TD*%
M02*
